<?xml version="1.0" encoding="utf-8"?>
<!-- Generator: Adobe Illustrator 25.4.1, SVG Export Plug-In . SVG Version: 6.00 Build 0)  -->
<svg version="1.1" xmlns="http://www.w3.org/2000/svg" xmlns:xlink="http://www.w3.org/1999/xlink" x="0px" y="0px"
	 viewBox="0 0 81.5 90.4" style="enable-background:new 0 0 81.5 90.4;" xml:space="preserve">
<style type="text/css">
	.st0{fill:#D1B788;}
	.st1{fill:#FFFFFF;}
	.st2{fill:url(#SVGID_1_);}
	.st3{fill:none;stroke:#D8D4CB;stroke-width:2.5;stroke-linecap:round;stroke-linejoin:round;stroke-miterlimit:10;}
	.st4{fill:none;stroke:#D8D4CB;stroke-width:2.5;stroke-linejoin:round;stroke-miterlimit:10;}
	.st5{fill:none;stroke:#000000;stroke-width:2.5;stroke-linecap:round;stroke-linejoin:round;stroke-miterlimit:10;}
	.st6{fill:#333333;}
	.st7{display:none;fill:#333333;}
	.st8{fill:none;stroke:#DBD1C8;stroke-width:4;stroke-linecap:round;stroke-linejoin:round;stroke-miterlimit:10;}
	.st9{fill:#DBD1C8;}
	.st10{fill:#EFA153;}
	.st11{fill:#010101;}
	.st12{stroke:#DBD1C8;stroke-width:4;stroke-miterlimit:10;}
	.st13{fill:#F9E3C7;}
	.st14{fill:none;stroke:#000000;stroke-linecap:round;stroke-linejoin:round;stroke-miterlimit:10;}
	.st15{fill:none;stroke:#665D52;stroke-linecap:round;stroke-linejoin:round;stroke-miterlimit:10;stroke-dasharray:0,1.75;}
	.st16{fill:#898989;}
	.st17{fill:#9B8C79;}
	.st18{fill:#665D52;stroke:#000000;stroke-miterlimit:10;}
	.st19{fill:none;stroke:#000000;stroke-miterlimit:10;}
	.st20{fill:#494949;}
	.st21{fill:none;}
	.st22{fill:#EFEAE4;stroke:#333333;stroke-width:0.75;stroke-linecap:round;stroke-linejoin:round;stroke-miterlimit:10;}
	.st23{clip-path:url(#SVGID_00000136394805155357342500000004667782756318258327_);}
	.st24{fill:none;stroke:#898989;stroke-linecap:round;stroke-linejoin:round;}
	.st25{fill:none;stroke:#898989;stroke-linecap:round;stroke-linejoin:round;stroke-dasharray:4.903403e-02,3.9227;}
</style>
<symbol  id="New_Symbol_1" viewBox="-77.4 -59 154.8 118">
	<g>
		<g>
			<g>
				<path class="st0" d="M69.8,51.6c0,0,7.3-0.8,6.2-3.3c-0.3-0.7-1.3-1.2-2-1.5c-1.5-0.8-3-1.3-4.6-1.8c-4.2-1.3-8.6-2-12.6-3.6
					c-1.2-0.5-2.3-1.1-3.5-1.7l-0.1,0.2c0.5,0.3,1,0.7,1.5,1.2c0.6,0.7,1.2,1.3,1.7,1.9c2.5,2.8,4.2,5.1,3.7,8
					c-0.2,1.1-0.4,2-0.9,2.8L60,54c0.8-0.7,1.6-1.1,2.5-1.6L69.8,51.6z"/>
				<path class="st1" d="M-32.3-33.4c2.5-1.2,5.9-1.8,10.2-0.1c0,0,10.5,4.2,18.9,13.8l-0.3,0.2c-0.2,0-0.4,0-0.6,0
					C-5-19.8-5.9-20.3-6.7-21c-1.3-1.1-2.5-2.4-3.8-3.5c-1.6-1.3-3.2-2.3-4.9-3.4c-1.2-0.8-2.5-1.3-3.8-2c-1.2-0.6-2.4-1.2-3.7-1.7
					c-1.4-0.5-2.8-0.9-4.3-1.3c-1-0.2-2-0.5-3.1-0.6c-0.6,0-1.4,0.1-2,0.2L-32.3-33.4z M56.5,43c-0.6-0.6-1.1-1.3-1.7-1.9
					c-0.5-0.5-1-0.9-1.5-1.2l0.1-0.2c-0.6-0.3-1.2-0.7-1.7-1c-1.8-1-3.4-2.2-4.7-3.9c-1.2-1.6-2.2-3.4-2.6-5.3
					c-0.5-1.9-0.2-3.8-0.3-5.8c-0.2-4.6,0.2-9.3,0.8-13.8c0.5-3.4,1.1-6.8,1.3-10.2c0.2-2.5,0.1-5.1-0.1-7.5c0-0.2,0-0.5-0.1-0.7
					c-0.2-2.7-0.4-5.2-1.4-7.7c-0.9-2.2-1.6-4.4-2.7-6.5c-2.6-5.2-6-10-9.8-14.4C1.9-70.4-38.6-52.4-38.6-52.4
					c-13-4.4-19.5-3.3-19.5-3.3l-0.1,0.4c-3.6-1.1-7.2-2-10.3-2.2c-1.2-0.1-7-0.9-7.5,1.1c-0.4,1.4,2.9,3,3.6,3.3
					c2.1,1.1,4.1,2.2,6.3,3.1c1.5,0.6,2.9,1.6,4.4,2.3c-6.9-1.6-12,3.8-12.3,4.1c0.6-0.4,1.2-0.8,2-0.9c0,0,4.8-1.1,14,2l0.2-0.6
					c0,0,14.1,4.5,22.9,10.9l0.7,0.2c-1.8,1.3-2.7,2.7-2.7,2.7L-37-28c1.8-0.2,3.6,0,5.5,0.3c7.3,1.3,15,5.7,18.7,8l-0.1,0.1
					c-0.6,0.4-1.2,0.8-1.8,1.2c-1.3,0.9-2.7,1.8-4.1,2.7c-0.7,0.5-1.4,0.9-2.1,1.4c-2.5,1.6-5,3.3-7.3,4.9c-1.2,0.8-2.5,1.7-3.6,2.5
					c-0.9,0.6-1.7,1.2-2.5,1.8c-2,1.5-4.1,3-5.5,4.1l0,0c-1.2,0.9-2,1.5-2,1.5c-6.3,4.6-10.4,9.1-12.9,12.9c0,0,0,0,0,0
					c-0.4,0.6-0.8,1.3-1.2,1.9c-2,3.4-2.8,6.4-2.8,7.1c-0.3,0-2.4,14.4,4.2,9.9c0,0,0.6-9.6,9.3-15.1c0.6-0.4,8.8-5.5,17.3-7.4
					C-22.4,8.5-17,6.4-11.7,5C-5.4,3.3,0,1.1,4-0.8l0.2,0.4c0,0,18.2-2.5,27.2,10c-0.3,5.4-0.6,10.8-0.6,10.8c0,3.4,0.1,6.5,0.5,9.3
					c0.5,4,0.3,4.2,1.9,11.3c0.6,2.4,2.6,7.7,3.9,9.9c2.9,5,6.9,6.9,13.3,6.8c5.3-0.1,7.9-1.4,9.2-3.9c0.4-0.8,0.7-1.7,0.9-2.8
					C60.7,48.2,59,45.9,56.5,43z M54.2,51.6c-0.1,1-0.9,1.8-2,1.8c-1-0.1-1.8-0.9-1.8-2c0.1-1,0.9-1.8,2-1.8
					C53.5,49.7,54.3,50.6,54.2,51.6z M1.9-46.1L-19.2-45C-19.2-45-10.3-49.1,1.9-46.1z"/>
				<circle cx="52.4" cy="51.5" r="1.9"/>
				<linearGradient id="SVGID_1_" gradientUnits="userSpaceOnUse" x1="-19.0926" y1="-46.4489" x2="1.8259" y2="-45.2181">
					<stop  offset="0" style="stop-color:#FFFFFF"/>
					<stop  offset="1" style="stop-color:#000000"/>
				</linearGradient>
				<path class="st2" d="M-19.2-45l21.1-1.1C-10.3-49.1-19.2-45-19.2-45z"/>
				<path class="st1" d="M-12.8-19.6l0.1-0.1c-3.7-2.3-11.4-6.7-18.7-8l0,0.1c0.2,0.1,0.7,0.2,1,0.3c0.9,0.2,1.7,0.4,2.6,0.8
					c2,0.8,3.9,1.9,5.8,2.9c2,1,3.8,2,5.5,3.4c0.6,0.5,1.3,1.1,1.9,1.7l0.1,0.1C-14-18.8-13.4-19.2-12.8-19.6z"/>
				<path class="st1" d="M-14.6-18.4l-0.1-0.1c-0.5-0.6-1.2-1.1-1.9-1.7c-1.7-1.4-3.5-2.4-5.5-3.4c-1.9-1-3.8-2.1-5.8-2.9
					c-0.9-0.4-1.7-0.5-2.6-0.8c-0.3-0.1-0.7-0.1-1-0.3l0-0.1c-1.9-0.3-3.8-0.5-5.5-0.3c-3.9,0.4-7.3,2.2-9.5,6.4l0,1.2
					c6.1-1.4,14.9-0.7,27.8,4.7l0,0C-17.3-16.5-15.9-17.5-14.6-18.4z"/>
				<path class="st1" d="M-18.7-15.6L-18.7-15.6c-12.9-5.4-21.8-6.1-27.8-4.7c-0.5,0.1-1.1,0.3-1.6,0.4l0,0c0,0,5.7-0.6,11.4,0.2
					c5.5,0.7,9.7,2.6,15.7,5.1l0.2,0.3C-20.1-14.7-19.4-15.2-18.7-15.6z"/>
				<path class="st1" d="M-20.8-14.3l-0.2-0.3c-6-2.4-10.1-4.3-15.7-5.1c-5.8-0.8-11.4-0.2-11.4-0.2l0,0
					C-58.6-16.5-59.6-6.2-59.6-6.2l0.3,0.6c6.5-3.7,16.3-5.7,31.1-3.8l0,0C-25.7-11-23.3-12.6-20.8-14.3z"/>
				<path class="st1" d="M-31.7-6.9c1.1-0.8,2.3-1.6,3.6-2.5l0,0c-14.8-2-24.7,0.1-31.1,3.8C-73,2.2-71.8,17.4-71.7,18
					c0-0.1,0.3-1.7,8.8-8c3.6-5.3,10.5-9.8,23.2-11l0,0c1.5-1.1,3.6-2.6,5.5-4.1C-33.4-5.7-32.5-6.3-31.7-6.9z"/>
				<path class="st1" d="M-41.8,0.4c0,0,0.8-0.6,2-1.5c-12.7,1.3-19.6,5.7-23.2,11c-6.6,9.6-2.4,21.7-2.4,21.7s2.1-5.9,6.5-12.9
					c0.8-1.3,1.7-2.3,2.5-3.7c0.4-0.7,1-1.2,1.6-1.7c0,0,0,0,0,0C-52.1,9.5-48.1,5.1-41.8,0.4z"/>
			</g>
			<g>
				<path class="st3" d="M-58-43.2c0,0,14.1,4.5,22.9,10.9"/>
				<path class="st4" d="M-31.5-6.8c0,0,0-0.1-0.1-0.2c-1.5-1-15.5-5.1-27.6,2"/>
				<path class="st4" d="M-21-14.6c-6-2.4-10.1-4.3-15.7-5.1c-5.8-0.8-11.4-0.2-11.4-0.2"/>
				<path class="st4" d="M-3.5-19.4c-0.2,0-0.4,0-0.6,0C-5-19.8-5.9-20.3-6.7-21c-1.3-1.1-2.5-2.4-3.8-3.5c-1.6-1.3-3.2-2.3-4.9-3.4
					c-1.2-0.8-2.5-1.3-3.8-2c-1.2-0.6-2.4-1.2-3.7-1.7c-1.4-0.5-2.8-0.9-4.3-1.3c-1-0.2-2-0.5-3.1-0.6c-0.6,0-1.4,0.1-2,0.2"/>
				<path class="st4" d="M-14.7-18.5c-0.5-0.6-1.2-1.1-1.9-1.7c-1.7-1.4-3.5-2.4-5.5-3.4c-1.9-1-3.8-2.1-5.8-2.9
					c-0.9-0.4-1.7-0.5-2.6-0.8c-0.3-0.1-0.7-0.1-1-0.3"/>
				<path class="st4" d="M45.1,42c1.7-0.4,5.5-0.9,11.4,1.1"/>
				<path class="st5" d="M-74.1-43.7L-74.1-43.7c0.6-0.4,1.2-0.8,2-0.9c0,0,4.8-1.1,14,2C-53-41-46.4-38-38.5-32.8
					c0.8,0.5,1.2,1.2,1.8,1.8"/>
				<path class="st5" d="M-38.2-46.7c0,0-10-5.5-20.1-8.7c-3.6-1.1-7.2-2-10.3-2.2c-1.2-0.1-7-0.9-7.5,1.1c-0.4,1.4,2.9,3,3.6,3.3
					c2.1,1.1,4.1,2.2,6.3,3.1c1.5,0.6,2.9,1.6,4.4,2.3c-6.9-1.6-12,3.8-12.3,4.1"/>
				<path class="st5" d="M-71.4-57c0,0,9.9,3.4,14.4,6.8"/>
				<path class="st5" d="M-37.1-29.5c0,0,0.9-1.4,2.7-2.7c0.6-0.4,1.3-0.9,2.1-1.3c2.5-1.2,5.9-1.8,10.2-0.1c0,0,10.5,4.2,18.9,13.8
					c0.2,0.2,0.4,0.5,0.6,0.7"/>
				<path class="st5" d="M35-33.6c-1-1.2-2-2.4-3-3.5C1.9-70.4-38.6-52.4-38.6-52.4c-13-4.4-19.5-3.3-19.5-3.3"/>
				<path class="st5" d="M32-37.2c3.9,4.3,7.3,9.1,9.8,14.4c1.1,2.1,1.8,4.3,2.7,6.5c1,2.5,1.2,5,1.4,7.7C46-8.3,46-8.1,46-7.8
					c0.2,2.5,0.3,5,0.1,7.5c-0.2,3.4-0.8,6.8-1.3,10.2c-0.6,4.6-1,9.2-0.8,13.8c0.1,2-0.2,3.8,0.3,5.8c0.5,1.9,1.4,3.7,2.6,5.3
					c1.3,1.6,2.9,2.8,4.7,3.9c0.6,0.3,1.2,0.7,1.7,1c1.1,0.6,2.2,1.3,3.5,1.7c4.1,1.6,8.5,2.3,12.6,3.6c1.6,0.5,3.1,1.1,4.6,1.8
					c0.7,0.3,1.6,0.8,2,1.5c1.1,2.5-6.2,3.3-6.2,3.3l-7.3,0.8c-0.9,0.4-1.7,0.8-2.5,1.6"/>
				<path class="st5" d="M45.2,39.3c0,0,4.6-1.5,8.1,0.5c0.5,0.3,1,0.7,1.5,1.2c0.6,0.7,1.2,1.3,1.7,1.9c2.5,2.8,4.2,5.1,3.7,8
					c-0.2,1.1-0.4,2-0.9,2.8c-1.3,2.4-3.9,3.8-9.2,3.9c-6.4,0.1-10.3-1.8-13.3-6.8c-1.3-2.2-3.3-7.5-3.9-9.9
					c-1.6-7.1-1.5-7.3-1.9-11.3c-0.3-2.8-0.5-5.9-0.5-9.3c0,0,0.3-5.4,0.6-10.8c0-0.8,0.1-1.6,0.1-2.4C31.8,1.2,30-3,30-3"/>
				<path class="st5" d="M4.1-0.5c0,0,18.2-2.5,27.2,10"/>
				<path class="st5" d="M-39.7-1.1c1.5-1.1,3.6-2.6,5.5-4.1c0.8-0.6,1.6-1.2,2.5-1.8c1.1-0.8,2.3-1.6,3.6-2.5
					c2.3-1.6,4.8-3.2,7.3-4.9c0.7-0.5,1.4-0.9,2.1-1.4c1.4-0.9,2.7-1.8,4.1-2.7c0.6-0.4,1.2-0.8,1.8-1.2"/>
				<path class="st5" d="M-54.7,13.4c2.6-3.9,6.6-8.3,12.9-12.9c0,0,0.8-0.6,2-1.5"/>
				<path class="st5" d="M11.3-4.9c0,0-2.7,1.8-7.4,4.1C0,1.1-5.4,3.3-11.7,5C-17,6.4-22.4,8.5-27.8,9.7c-8.6,1.9-16.7,7-17.3,7.4
					c-8.8,5.5-9.3,15.1-9.3,15.1c-6.7,4.6-4.6-9.9-4.2-9.9c0-0.6,0.9-3.7,2.8-7.1c0.3-0.6,0.7-1.2,1.2-1.9"/>
				<path class="st5" d="M-10.5-18.2c0,0-0.8-0.6-2.2-1.5c-3.7-2.3-11.4-6.7-18.7-8c-1.9-0.3-3.8-0.5-5.5-0.3
					c-3.9,0.4-7.3,2.2-9.5,6.4"/>
				<path class="st5" d="M-59.6-6.2c0,0,1-10.3,11.5-13.6c0.5-0.2,1-0.3,1.6-0.4c6.1-1.4,14.9-0.7,27.8,4.7"/>
				<path class="st5" d="M-71.7,18c0-0.1,0.3-1.7,8.8-8"/>
				<path class="st5" d="M-28.1-9.4c-14.8-2-24.7,0.1-31.1,3.8C-73,2.2-71.8,17.4-71.7,18c0,0,0,0,0,0"/>
				<path class="st5" d="M-39.7-1.1L-39.7-1.1c-12.7,1.2-19.6,5.7-23.2,11c-6.6,9.6-2.4,21.7-2.4,21.7s2.1-5.9,6.5-12.9
					c0.8-1.3,1.7-2.3,2.5-3.7c0.4-0.7,1-1.2,1.6-1.7c0,0,0,0,0,0c0.4-0.3,0.7-0.6,0.9-1"/>
				<path class="st5" d="M-14.4-34.1c0,0,7.3,2.9,16.3,12.4"/>
				<path class="st5" d="M-19.2-45c0,0,8.8-4.1,21.1-1.1"/>
				<path class="st5" d="M-22.9-51.6c0,0,17.5-4,31,2.2"/>
			</g>
		</g>
	</g>
</symbol>
<g id="Layer_3">
	<g>
		<circle class="st6" cx="41.3" cy="34" r="39.3"/>
	</g>
	<path class="st6" d="M66.9,94.4H14.7c-2.5,0-4.6-2.1-4.6-4.6V35.5c0-2.5,2.1-4.6,4.6-4.6h52.2c2.5,0,4.6,2.1,4.6,4.6v54.3
		C71.5,92.4,69.4,94.4,66.9,94.4z"/>
	<path class="st6" d="M76.6,51c-1,2.5-5.2,7-5.2,23.2h-5.8V52.5L76.6,51z"/>
	<path class="st6" d="M8.1,49.9c1,2.3,4.8,6.5,4.8,21.5h5.4V51.2L8.1,49.9z"/>
</g>
<g id="Layer_1">
	<g id="New_Symbol_00000069375921941586325320000009336810126453050289_">
		<path class="st7" d="M44.3,8.5L44.3,8.5H13.6v30.7v1.2v30.7h30.7l0,0c17,0,30.7-13.8,30.7-30.7v-1.2V8.5H44.3z"/>
	</g>
	<g id="Layer_1_00000168087939797448788090000013134280387369437072_">
		<g id="New_Symbol_00000056425914797687237990000014334136036614302654_">
			<path class="st8" d="M27.6,40.2c1.8,0.4,4.3,0.2,8-1.4"/>
			<path class="st8" d="M33,37c-4.3,0.6-7.1,0-9-1.1"/>
			<path class="st8" d="M29.6,34.6L29.6,34.6c-3.7-0.4-5.7-1.7-6.7-3.2l0,0"/>
			<g>
				<path class="st1" d="M37.3,48.9c-3.8,0-6.6-1.2-6.6-1.2c-0.3-0.1-0.5-0.2-0.8-0.2c-0.2,0-0.4,0-0.6,0.1c-2,0.7-3.4,0.8-4.1,0.9
					l0,0l0,0c0.2-0.1,3.6-1.3,6.5-3.4c0.5-0.4,0.8-1,0.8-1.6c0-0.2,0-0.4-0.1-0.6v-0.3c0.1-1.1-0.7-2-1.8-2.1c-0.4,0-0.7-0.2-1-0.5
					c-0.1-0.8-0.7-1.5-1.5-1.7c-0.1,0-0.2-0.1-0.3-0.1c-1-0.3-1.5-1-1.7-1.6c0.3-0.9-0.1-1.8-1-2.3L25,34.2c-0.5-0.3-0.9-0.6-1.2-1
					c0.2-0.1,0.4-0.2,0.6-0.4c0.2-0.2,0.3-0.4,0.4-0.6c0.2,0.1,0.4,0.1,0.6,0.1c0.5,0,0.9-0.2,1.3-0.5c0.2-0.2,0.4-0.5,0.5-0.8
					c0.6,0.4,2.9,1.8,5.5,2.3c0.8,0.2,1.7,0.4,2.6,0.7c0.7,0.2,1.4,0.4,2,0.6c1.4,0.4,2.8,0.9,4.2,1.6c0.3,0.1,0.6,0.2,0.9,0.2
					c0.2,0,0.3,0,0.5-0.1c0.2,0,0.4,0,0.7,0c2.1,0,6-0.5,8.4-3.8c0.2-0.2,0.3-0.5,0.3-0.8l0.1,0.5c0.1,0.8,0.2,1.5,0.3,2.2
					c0,0.6,0,1.3,0,1.9v0.3c-0.4,0.8-0.4,1.3-0.6,1.7l-0.2,0.4c-0.2,0.5-0.3,0.9-0.5,1.3c-0.6,1.3-1.5,2.5-2.5,3.7
					C45.8,47.2,41.9,48.9,37.3,48.9z M52.3,24.3c0.1-0.3,0.2-0.8,0.3-1.5c0.1-0.5,0.6-1.9,0.9-2.3c0.4-0.7,0.8-1,2-1h0.1
					c0.5,0,0.8,0.1,0.9,0.1c0,0,0,0,0,0.1c-0.1,0.1-0.2,0.3-0.6,0.8l-0.5,0.6c-0.2,0.1-0.3,0.2-0.4,0.3c-0.8,0.5-1.4,1-1.9,1.6
					C52.8,23.4,52.5,23.9,52.3,24.3z"/>
				<path class="st9" d="M27.9,26.3L27.9,26.3L27.9,26.3 M26,26.4L26,26.4L26,26.4 M27.6,33.7c1.2,0.6,2.8,1.3,4.6,1.7
					c0.7,0.2,1.5,0.4,2.4,0.7c0.7,0.2,1.4,0.4,2.1,0.6c1.6,0.4,3,1,3.8,1.4c0.5,0.3,1.1,0.4,1.7,0.4c0.2,0,0.4,0,0.6-0.1
					c0.2,0,0.3,0,0.5,0c1.7,0,4.5-0.3,7-1.8c0,0.4-0.1,0.7-0.1,0.9L50,37.9c-0.2,0.4-0.3,0.8-0.5,1.2c-0.5,1.1-1.3,2.2-2.2,3.2
					c-2.7,3-6.1,4.5-10.1,4.5c-1.6,0-3.1-0.3-4.1-0.5c0.8-0.7,1.3-1.8,1.3-2.9c0-0.3,0-0.5-0.1-0.8c0.1-2-1.2-3.7-3.1-4.2
					c-0.5-1.1-1.5-1.9-2.7-2.2c-0.1,0-0.1,0-0.1,0c-0.1,0-0.2-0.1-0.3-0.1c0-0.8-0.2-1.7-0.7-2.3C27.5,33.8,27.5,33.7,27.6,33.7
					 M55.5,17.6c-1.8,0-2.9,0.6-3.7,2c-0.4,0.6-1,2.2-1.1,2.9c-0.5,2.1-0.4,2.1-0.6,3.3C50,26.6,50,27.5,50,28.5
					c0,0,0.1,1.6,0.2,3.1c-1.8,2.6-5,3-6.7,3c-0.7,0-1.1-0.1-1.1-0.1v0.1c-1.1-0.6-2.7-1.2-4.5-1.7c-1.5-0.4-3.1-1-4.7-1.4
					c-2.5-0.6-4.8-2-5-2.2c-2.5-1.6-2.7-4.4-2.7-4.4c-0.3-0.2-0.5-0.3-0.7-0.3c-1.1,0-0.7,3.1-0.6,3.1c0,0.2,0.3,1.1,0.8,2
					c0.1,0.2,0.2,0.4,0.3,0.5c-0.2-0.1-0.3-0.3-0.5-0.5c-0.2-0.4-0.5-0.7-0.7-1.1c-1.3-2-1.9-3.7-1.9-3.7s-1.2,3.5,0.7,6.3
					c-2.5-1.8-2.6-2.3-2.6-2.3c0,0.2-0.4,4.6,3.6,6.8H24c0,0,0.1,0,0.1,0.1c0,0-0.1,0-0.1-0.1h-0.1l-0.1,0.2c0,0,0.3,3,3.3,4
					c0.1,0,0.3,0.1,0.5,0.1v0.4c0.6,1.2,1.6,1.8,2.7,1.9v0.4c0,0-0.4,0.2,0.1,0.6c-2.7,2-5.9,3.1-5.9,3.1l-0.3,0.1
					c-1.6,0.5-2.7,0.6-3.3,0.6c-0.5,0-0.7-0.1-0.7-0.1c-0.2,0-0.4-0.2-0.6-0.3c0.1,0.1,1.2,1.3,2.8,1.3c0.2,0,0.5,0,0.7-0.1
					c-0.4,0.2-0.8,0.5-1.3,0.7c-0.6,0.3-1.2,0.6-1.8,0.9c-0.2,0.1-1.1,0.5-1,1c0.1,0.3,0.6,0.4,1.1,0.4c0.4,0,0.9-0.1,1.1-0.1
					c0.9-0.1,1.9-0.3,3-0.6v0.1c0,0,0.2,0,0.6,0c0.8,0,2.5-0.1,5-1c0,0,3.2,1.4,7.4,1.4c3.9,0,8.8-1.2,13-5.8
					c1.1-1.3,2.1-2.6,2.8-4.2c0.3-0.6,0.5-1.3,0.8-1.9c0.3-0.7,0.3-1.5,0.4-2.2c0-0.1,0-0.1,0-0.2c0.1-0.7,0.1-1.5,0-2.2
					c-0.1-1-0.2-2-0.4-3c-0.2-1.3-0.3-2.7-0.2-4c0-0.6-0.1-1.1,0.1-1.7c0.1-0.6,0.4-1.1,0.8-1.5c0.4-0.5,0.8-0.8,1.4-1.1
					c0.1-0.1,0.3-0.2,0.4-0.2l0,0c0.2-0.1,0.4-0.2,0.5-0.4c0.2-0.2,0.3-0.4,0.5-0.6c0.7-0.8,1.2-1.5,1.1-2.3c0-0.3-0.1-0.6-0.3-0.8
					c-0.4-0.7-1.1-1.1-2.7-1.1C55.6,17.6,55.5,17.6,55.5,17.6L55.5,17.6z"/>
			</g>
			<g>
				<path class="st10" d="M61.3,19.4c0,0,2.1,0.2,1.8,0.9c-0.1,0.2-0.4,0.3-0.6,0.4c-0.4,0.2-0.9,0.4-1.3,0.5
					c-1.2,0.4-2.5,0.6-3.7,1c-0.4,0.1-0.7,0.3-1.1,0.6l0,0c0.2-0.1,0.4-0.2,0.5-0.4c0.2-0.2,0.3-0.4,0.5-0.6
					c0.7-0.8,1.2-1.5,1.1-2.3c0-0.3-0.1-0.6-0.3-0.8h0.2c0.2,0.2,0.5,0.3,0.7,0.5L61.3,19.4z"/>
				<path class="st9" d="M58.5,18.7h-0.2c0.1,0.2,0.2,0.5,0.3,0.8c0.1,0.8-0.3,1.5-1.1,2.3c-0.2,0.2-0.3,0.4-0.5,0.6
					s-0.3,0.3-0.5,0.4l0,0c0.4-0.2,0.7-0.4,1.1-0.6c1.2-0.5,2.5-0.7,3.7-1c0.5-0.1,0.9-0.3,1.3-0.5c0.2-0.1,0.5-0.2,0.6-0.4
					c0.3-0.7-1.8-0.9-1.8-0.9l-2.1-0.2C58.9,19,58.7,18.9,58.5,18.7L58.5,18.7z"/>
			</g>
			<g>
				<circle class="st11" cx="56.2" cy="19.4" r="0.5"/>
				<path class="st9" d="M56.2,18.9c-0.3,0-0.5,0.2-0.5,0.5s0.2,0.5,0.5,0.5s0.5-0.2,0.5-0.5S56.5,18.9,56.2,18.9L56.2,18.9z"/>
			</g>
			<path class="st8" d="M30,47.8c0,0-2.9,1.6-5.8,2.5c-1,0.3-2.1,0.6-3,0.6c-0.3,0-2,0.2-2.2-0.3c-0.1-0.4,0.8-0.9,1-1
				c0.6-0.3,1.2-0.6,1.8-0.9c0.4-0.2,0.8-0.5,1.3-0.7c-2,0.5-3.5-1.1-3.6-1.2"/>
			<path class="st8" d="M34.7,44c0,0,3-1.2,5.5-4c0.1-0.1,0.1-0.1,0.2-0.2"/>
			<path class="st8" d="M51.2,44.1c-0.3,0.4-0.6,0.7-0.9,1c-8.7,9.6-20.5,4.4-20.5,4.4c-3.8,1.3-5.6,0.9-5.6,0.9"/>
			<path class="st8" d="M50.4,45.1c1.1-1.3,2.1-2.6,2.8-4.2c0.3-0.6,0.5-1.3,0.8-1.9c0.3-0.7,0.3-1.5,0.4-2.2c0-0.1,0-0.1,0-0.2
				c0.1-0.7,0.1-1.5,0-2.2c-0.1-1-0.2-2-0.4-3c-0.2-1.3-0.3-2.7-0.2-4c0-0.6-0.1-1.1,0.1-1.7c0.1-0.6,0.4-1.1,0.8-1.5
				c0.4-0.5,0.8-0.8,1.4-1.1c0.1-0.1,0.3-0.2,0.4-0.2c0.4-0.2,0.7-0.4,1.1-0.6c1.2-0.5,2.5-0.7,3.7-1c0.5-0.1,0.9-0.3,1.3-0.5
				c0.2-0.1,0.5-0.2,0.6-0.4c0.3-0.7-1.8-0.9-1.8-0.9l-2.1-0.2c-0.3-0.1-0.5-0.2-0.7-0.5"/>
			<path class="st8" d="M54.2,22.9c0,0,1.3,0.4,2.2-0.1c0.2-0.1,0.4-0.2,0.5-0.4c0.2-0.2,0.3-0.4,0.5-0.6c0.7-0.8,1.2-1.5,1.1-2.3
				c0-0.3-0.1-0.6-0.3-0.8c-0.4-0.7-1.1-1.1-2.7-1.1c-1.8,0-3,0.5-3.8,2c-0.4,0.6-1,2.2-1.1,2.9c-0.5,2.1-0.4,2.1-0.6,3.3
				c-0.1,0.8-0.1,1.7-0.1,2.7c0,0,0.1,1.6,0.2,3.1c0,0.2,0,0.5,0,0.7c0.1,1.7-0.4,3-0.4,3"/>
			<path class="st8" d="M42.3,34.5c0,0,5.3,0.7,7.9-2.9"/>
			<path class="st8" d="M44.4,35.7c0,0-0.8-0.5-2.1-1.2c-1.1-0.6-2.7-1.2-4.5-1.7c-1.5-0.4-3.1-1-4.7-1.4c-2.5-0.6-4.8-2-5-2.2
				c-2.5-1.6-2.7-4.4-2.7-4.4c-1.9-1.3-1.3,2.9-1.2,2.9c0,0.2,0.3,1.1,0.8,2c0.1,0.2,0.2,0.4,0.3,0.5"/>
			<path class="st8" d="M30.4,42.4c-1.1-0.1-2.1-0.6-2.8-1.8"/>
			<path class="st8" d="M23.8,36.1c0,0,0.3,3,3.3,4c0.1,0,0.3,0.1,0.5,0.1"/>
			<path class="st8" d="M20.3,29.1c0,0,0.1,0.5,2.6,2.3"/>
			<path class="st8" d="M23.9,35.9c-4-2.3-3.6-6.7-3.6-6.8l0,0"/>
			<path class="st8" d="M22.9,31.4c-1.9-2.8-0.7-6.3-0.7-6.3s0.6,1.7,1.9,3.7c0.2,0.4,0.5,0.7,0.7,1.1c0.1,0.2,0.3,0.3,0.5,0.5l0,0
				c0.1,0.1,0.2,0.2,0.3,0.3"/>
			<path class="st8" d="M35.5,47.3c0,0,2.6,1.2,6.1,0.3"/>
			<path class="st8" d="M29.6,34.6c0.4,0.3,1,0.8,1.6,1.2c0.2,0.2,0.5,0.3,0.7,0.5c0.3,0.2,0.7,0.5,1,0.7c0.7,0.5,1.4,0.9,2.1,1.4
				c0.2,0.1,0.4,0.3,0.6,0.4c0.4,0.3,0.8,0.5,1.2,0.8c0.2,0.1,0.3,0.2,0.5,0.4"/>
			<path class="st8" d="M25.3,30.4c0.7,1.1,1.9,2.4,3.7,3.7c0,0,0.2,0.2,0.6,0.4"/>
			<path class="st8" d="M38,39.6c0,0-0.2,0.2-0.6,0.4c-1.1,0.7-3.3,1.9-5.4,2.3c-0.5,0.1-1.1,0.1-1.6,0.1"/>
		</g>
		<path class="st12" d="M62.8,34.4l-2.7-0.7c-0.9-9.3-8.3-16.6-17.6-17.4l-0.9-3.5c-0.2-0.6-1-0.6-1.2,0l-1,3.5
			c-9.5,0.7-17.1,8.3-17.9,17.8l-2.3,0.6c-0.8,0.2-0.8,1.4,0,1.6l2.3,0.6c0.7,9.6,8.3,17.3,17.9,18l0.6,2.2c0.2,0.9,1.5,0.9,1.7,0
			l0.6-2.2c9.6-0.7,17.1-8.4,17.8-18l2.7-0.7C63.7,35.9,63.7,34.7,62.8,34.4z"/>
		<g>
			<circle class="st13" cx="40.8" cy="35.5" r="19.4"/>
			<circle class="st14" cx="40.8" cy="35.5" r="19.4"/>
		</g>
		<circle class="st15" cx="40.8" cy="35.5" r="16.7"/>
		<g>
			<path class="st16" d="M40.8,49c-7.4,0-13.5-6-13.5-13.5c0-7.4,6-13.5,13.5-13.5c7.4,0,13.5,6,13.5,13.5S48.2,49,40.8,49z"/>
			<path d="M40.8,22.6c7.2,0,13,5.8,13,13s-5.8,13-13,13s-13-5.8-13-13S33.7,22.6,40.8,22.6 M40.8,21.6c-7.7,0-14,6.3-14,14
				s6.3,14,14,14s14-6.3,14-14S48.5,21.6,40.8,21.6L40.8,21.6z"/>
		</g>
		<g>
			<path class="st17" d="M40.8,46.4c-6,0-10.8-4.9-10.8-10.8c0-6,4.9-10.8,10.8-10.8c6,0,10.8,4.9,10.8,10.8S46.8,46.4,40.8,46.4z"
				/>
			<path d="M40.8,25.2c5.7,0,10.3,4.6,10.3,10.3s-4.6,10.3-10.3,10.3s-10.3-4.6-10.3-10.3S35.1,25.2,40.8,25.2 M40.8,24.2
				c-6.3,0-11.3,5.1-11.3,11.3s5.1,11.3,11.3,11.3s11.3-5.1,11.3-11.3S47.1,24.2,40.8,24.2L40.8,24.2z"/>
		</g>
		<path class="st18" d="M40,57.1l-4.4-16.4c0-0.1-0.1-0.2-0.3-0.2l-16-4.2c-0.8-0.2-0.8-1.4,0-1.6l16.2-4.5c0.1,0,0.2-0.1,0.2-0.2
			l4.7-17.3c0.2-0.6,1-0.6,1.2,0L46,29.8c0,0.1,0.1,0.2,0.2,0.2l16.6,4.3c0.9,0.2,0.9,1.5,0,1.7l-16.5,4.3c-0.1,0-0.2,0.1-0.3,0.2
			l-4.2,16.4C41.5,57.9,40.3,57.9,40,57.1z"/>
		<g>
			<rect x="36.1" y="30.8" class="st16" width="9.3" height="9.3"/>
			<g>
				<path d="M44.9,31.3v8.3h-8.3v-8.3H44.9 M45.9,30.3H35.6v10.3h10.3V30.3L45.9,30.3z"/>
			</g>
		</g>
		<line class="st19" x1="40.9" y1="57.7" x2="40.9" y2="39.7"/>
		<line class="st19" x1="18.6" y1="35.5" x2="36.1" y2="35.5"/>
		<line class="st19" x1="45.6" y1="35.2" x2="63.7" y2="35.2"/>
		<g>
			<path class="st20" d="M30.5,23.3l23.3,22.5c-0.3,0.9-1.4,3.8-5.1,4.2L30.5,23.3z"/>
			<path d="M33.7,27.1L53.3,46c-0.4,1.1-1.5,3.1-4.3,3.5L33.7,27.1 M29,21.2c-0.2,0-0.3,0.2-0.2,0.4l19.6,28.7
				c0,0.1,0.1,0.1,0.2,0.1l0,0c4.4-0.4,5.5-3.9,5.7-4.7c0-0.1,0-0.2-0.1-0.2l-25-24.2C29.1,21.3,29.1,21.2,29,21.2L29,21.2z"/>
		</g>
		<rect x="18.5" y="14" class="st21" width="45.2" height="34.6"/>
		<path class="st22" d="M36.5,12.2"/>
		<line class="st19" x1="41" y1="11.9" x2="41" y2="31"/>
		
			<use xlink:href="#New_Symbol_1"  width="154.8" height="118" x="-77.4" y="-59" transform="matrix(0.2929 0 0 -0.2929 41.1812 34.3265)" style="overflow:visible;"/>
	</g>
	<g id="Layer_4">
	</g>
	<g>
		<path class="st1" d="M32.9,78.3c-0.6,0-1.1-0.1-1.6-0.3c-0.5-0.2-0.8-0.5-1.1-1c-0.3-0.4-0.4-1-0.4-1.6c0-0.4,0.1-0.8,0.2-1.2
			c0.1-0.4,0.4-0.7,0.7-1c0.3-0.3,0.6-0.5,1-0.6c0.4-0.2,0.9-0.2,1.4-0.2c0.3,0,0.6,0,0.9,0.1c0.3,0.1,0.6,0.1,0.8,0.2l0.1,1.4
			l-0.5,0l-0.3-1c-0.1-0.1-0.3-0.1-0.5-0.2s-0.4-0.1-0.6-0.1c-0.5,0-0.8,0.1-1.1,0.3c-0.3,0.2-0.5,0.5-0.7,0.8
			c-0.1,0.3-0.2,0.7-0.2,1.2c0,0.5,0.1,1,0.3,1.4c0.2,0.4,0.4,0.7,0.7,0.9s0.7,0.3,1,0.3c0.2,0,0.4,0,0.5-0.1s0.3-0.1,0.5-0.2
			l0.4-0.9l0.5,0.1l-0.3,1.2c-0.2,0.1-0.5,0.2-0.8,0.3C33.6,78.2,33.3,78.3,32.9,78.3z"/>
		<path class="st1" d="M37.8,78.3c-0.4,0-0.8-0.1-1.1-0.3c-0.3-0.2-0.6-0.4-0.8-0.8c-0.2-0.3-0.3-0.7-0.3-1.1c0-0.5,0.1-0.8,0.3-1.2
			c0.2-0.3,0.5-0.6,0.8-0.8c0.3-0.2,0.7-0.3,1.1-0.3c0.4,0,0.8,0.1,1.1,0.3c0.3,0.2,0.6,0.4,0.7,0.8c0.2,0.3,0.3,0.7,0.3,1.1
			c0,0.4-0.1,0.8-0.3,1.1c-0.2,0.3-0.4,0.6-0.8,0.8C38.5,78.2,38.1,78.3,37.8,78.3z M37.9,77.8c0.2,0,0.4-0.1,0.5-0.2
			c0.1-0.1,0.3-0.3,0.3-0.5c0.1-0.2,0.1-0.5,0.1-0.8c0-0.6-0.1-1-0.3-1.4c-0.2-0.3-0.5-0.5-0.9-0.5c-0.3,0-0.6,0.1-0.8,0.4
			c-0.2,0.3-0.3,0.7-0.3,1.1c0,0.4,0.1,0.7,0.2,1c0.1,0.3,0.3,0.5,0.4,0.7C37.4,77.7,37.6,77.8,37.9,77.8z"/>
		<path class="st1" d="M40.5,78.2l0-0.4l0.6-0.2c0,0,0-0.1,0-0.2c0-0.1,0-0.2,0-0.3s0-0.3,0-0.5l0-0.8c0-0.2,0-0.4,0-0.6
			c0-0.2,0-0.4-0.1-0.5l-0.6-0.1v-0.4l1.4-0.4l0.2,0.2l0,0.5l0,0c0.2-0.2,0.4-0.4,0.7-0.5s0.5-0.2,0.7-0.2c0.3,0,0.5,0.1,0.7,0.2
			s0.4,0.3,0.5,0.6s0.2,0.6,0.2,0.9v1.1c0,0.2,0,0.4,0,0.6c0,0.2,0,0.3,0,0.4l0.6,0.2l0,0.4h-2.1l0-0.4l0.6-0.2c0-0.1,0-0.1,0-0.2
			s0-0.2,0-0.3c0-0.1,0-0.3,0-0.4v-1c0-0.3,0-0.5-0.1-0.7s-0.2-0.3-0.3-0.4c-0.1-0.1-0.3-0.1-0.4-0.1c-0.2,0-0.4,0-0.6,0.1
			c-0.2,0.1-0.3,0.2-0.4,0.4v1.5c0,0.3,0,0.5,0,0.7c0,0.2,0,0.3,0,0.4l0.6,0.2l0,0.4H40.5z"/>
		<path class="st1" d="M49.2,77.5c-0.1,0.2-0.3,0.4-0.5,0.6c-0.2,0.1-0.5,0.2-0.7,0.2c-0.4,0-0.7-0.1-1-0.4s-0.4-0.6-0.4-1.1l0-2.3
			h-0.7v-0.2l1.4-1.2h0.2l0,1.2l0,2.4c0,0.3,0.1,0.5,0.2,0.7c0.1,0.1,0.3,0.2,0.6,0.2c0.1,0,0.3,0,0.4-0.1c0.1-0.1,0.2-0.1,0.3-0.2
			L49.2,77.5z M47,74.5V74h1.9v0.5H47z"/>
		<path class="st1" d="M49.3,78.2l0-0.4l0.7-0.1c0,0,0-0.1,0-0.2c0-0.1,0-0.2,0-0.3c0-0.1,0-0.3,0-0.5v-0.7c0-0.2,0-0.5,0-0.6
			c0-0.2,0-0.4-0.1-0.5l-0.7-0.1v-0.4l1.5-0.4l0.2,0.2c0,0.2,0,0.4,0,0.6c0,0.2,0,0.4,0,0.7v1.2c0,0.3,0,0.5,0,0.7s0,0.3,0,0.4
			l0.7,0.1l0,0.4H49.3z M50.5,72.9c-0.2,0-0.4-0.1-0.5-0.2s-0.2-0.3-0.2-0.5s0.1-0.3,0.2-0.5s0.3-0.2,0.5-0.2s0.4,0.1,0.5,0.2
			s0.2,0.3,0.2,0.5s-0.1,0.3-0.2,0.5S50.7,72.9,50.5,72.9z"/>
	</g>
	<g>
		<path class="st1" d="M18.6,87.5c-0.6,0-1.1-0.1-1.6-0.3c-0.5-0.2-0.8-0.5-1.1-1c-0.3-0.4-0.4-1-0.4-1.6c0-0.4,0.1-0.8,0.2-1.2
			c0.1-0.4,0.4-0.7,0.7-1c0.3-0.3,0.6-0.5,1-0.6c0.4-0.2,0.9-0.2,1.4-0.2c0.3,0,0.6,0,0.9,0.1c0.3,0.1,0.6,0.1,0.8,0.2l0.1,1.4
			l-0.5,0l-0.3-1c-0.1-0.1-0.3-0.1-0.5-0.2s-0.4-0.1-0.6-0.1c-0.5,0-0.8,0.1-1.1,0.3c-0.3,0.2-0.5,0.5-0.7,0.8
			c-0.1,0.3-0.2,0.7-0.2,1.2c0,0.5,0.1,1,0.3,1.4c0.2,0.4,0.4,0.7,0.7,0.9s0.7,0.3,1,0.3c0.2,0,0.4,0,0.5-0.1s0.3-0.1,0.5-0.2
			l0.4-0.9l0.5,0.1L20.4,87c-0.2,0.1-0.5,0.2-0.8,0.3C19.2,87.4,18.9,87.5,18.6,87.5z"/>
		<path class="st1" d="M22.7,87.5c-0.3,0-0.5-0.1-0.7-0.2c-0.2-0.1-0.4-0.3-0.5-0.4c-0.1-0.2-0.2-0.3-0.2-0.5c0-0.2,0.1-0.4,0.2-0.6
			c0.1-0.1,0.4-0.3,0.7-0.4l1.5-0.5v-0.4c0-0.2,0-0.3-0.1-0.4c-0.1-0.1-0.2-0.2-0.4-0.3s-0.3-0.1-0.5-0.1c-0.1,0-0.2,0-0.3,0.1
			c-0.1,0.1-0.1,0.2-0.1,0.4l0,0.5c-0.3,0.1-0.5,0.1-0.7,0c-0.2-0.1-0.3-0.2-0.3-0.4c0-0.1,0.1-0.2,0.2-0.3s0.2-0.2,0.4-0.3
			c0.2-0.1,0.3-0.2,0.5-0.3c0.2-0.1,0.4-0.1,0.5-0.2c0.5,0,0.9,0.1,1.2,0.4c0.3,0.3,0.5,0.6,0.5,1l0,1.6c0,0.1,0,0.3,0,0.4
			c0,0.1,0,0.2,0,0.3l0.6,0.1v0.3l-0.5,0.2c-0.1,0-0.2,0.1-0.3,0.1c-0.1,0-0.2,0-0.2,0c-0.2,0-0.4-0.1-0.4-0.4l-0.1-0.4l0.2,0
			c-0.2,0.2-0.4,0.4-0.6,0.6C23.1,87.4,22.9,87.5,22.7,87.5z M23.1,86.8c0.1,0,0.3,0,0.4-0.1s0.2-0.1,0.3-0.3v-1l-1,0.2
			c-0.2,0-0.3,0.1-0.3,0.2c-0.1,0.1-0.1,0.2-0.1,0.3c0,0.2,0.1,0.3,0.2,0.4C22.7,86.7,22.9,86.8,23.1,86.8z"/>
		<path class="st1" d="M25.8,87.4l0-0.4l0.6-0.2c0,0,0-0.1,0-0.2c0-0.1,0-0.2,0-0.3c0-0.1,0-0.3,0-0.5l0-0.8c0-0.2,0-0.4,0-0.6
			c0-0.2,0-0.4-0.1-0.5l-0.6-0.1v-0.4l1.4-0.4l0.2,0.1l0,0.8l0,0c0.2-0.4,0.4-0.6,0.6-0.8c0.2-0.1,0.4-0.2,0.6-0.2
			c0.2,0,0.3,0,0.4,0.1c0.1,0.1,0.2,0.2,0.2,0.4c0,0.2-0.1,0.3-0.2,0.4c-0.1,0.1-0.3,0.1-0.4,0.1c-0.1,0-0.3,0-0.4-0.1
			c-0.1-0.1-0.2-0.1-0.3-0.2l0.2,0c-0.1,0.1-0.2,0.2-0.3,0.3c-0.1,0.1-0.2,0.3-0.3,0.5l0,0.9c0,0.2,0,0.4,0,0.6c0,0.2,0,0.3,0,0.5
			s0,0.2,0,0.3l0.8,0.1l0,0.4H25.8z"/>
		<path class="st1" d="M32.7,86.7c-0.1,0.2-0.3,0.4-0.5,0.6c-0.2,0.1-0.5,0.2-0.7,0.2c-0.4,0-0.7-0.1-1-0.4S30,86.5,30,86l0-2.3
			h-0.7v-0.2l1.4-1.2H31l0,1.2l0,2.4c0,0.3,0.1,0.5,0.2,0.7c0.1,0.2,0.3,0.2,0.6,0.2c0.1,0,0.3,0,0.4-0.1c0.1-0.1,0.2-0.1,0.3-0.2
			L32.7,86.7z M30.5,83.7v-0.5h1.9v0.5H30.5z"/>
		<path class="st1" d="M35.1,87.5c-0.4,0-0.8-0.1-1.1-0.3c-0.3-0.2-0.6-0.4-0.8-0.8c-0.2-0.3-0.3-0.7-0.3-1.1c0-0.5,0.1-0.8,0.3-1.2
			c0.2-0.3,0.5-0.6,0.8-0.8c0.3-0.2,0.7-0.3,1.1-0.3c0.4,0,0.8,0.1,1.1,0.3c0.3,0.2,0.6,0.4,0.7,0.8s0.3,0.7,0.3,1.1
			c0,0.4-0.1,0.8-0.3,1.1c-0.2,0.3-0.4,0.6-0.8,0.8C35.8,87.4,35.5,87.5,35.1,87.5z M35.2,86.9c0.2,0,0.4-0.1,0.5-0.2
			c0.1-0.1,0.3-0.3,0.3-0.5c0.1-0.2,0.1-0.5,0.1-0.8c0-0.6-0.1-1-0.3-1.4c-0.2-0.3-0.5-0.5-0.9-0.5c-0.3,0-0.6,0.1-0.8,0.4
			c-0.2,0.3-0.3,0.7-0.3,1.1c0,0.4,0.1,0.7,0.2,1c0.1,0.3,0.3,0.5,0.4,0.7C34.7,86.9,35,86.9,35.2,86.9z"/>
		<path class="st1" d="M39.9,89.6c-0.6,0-1.1-0.1-1.5-0.3s-0.5-0.5-0.5-0.8c0-0.2,0.1-0.4,0.3-0.6s0.5-0.4,0.9-0.5l0.4,0.1
			c-0.2,0.1-0.3,0.3-0.5,0.4c-0.1,0.2-0.2,0.3-0.2,0.5c0,0.2,0.1,0.4,0.3,0.6s0.5,0.2,0.8,0.2c0.4,0,0.7-0.1,1-0.3
			c0.3-0.2,0.4-0.4,0.4-0.7c0-0.2-0.1-0.4-0.2-0.5c-0.1-0.1-0.4-0.2-0.7-0.2l-1.1-0.1l-0.1,0c-0.3,0-0.5-0.1-0.7-0.2
			c-0.2-0.1-0.3-0.3-0.3-0.5c0-0.2,0.1-0.4,0.3-0.5c0.2-0.2,0.4-0.3,0.7-0.4l0.1,0.2c-0.1,0.1-0.2,0.1-0.2,0.2
			C39,86.3,39,86.3,39,86.4c0,0.1,0,0.2,0.1,0.2c0.1,0.1,0.2,0.1,0.3,0.1l1.3,0.1c0.5,0,0.8,0.2,1,0.4c0.2,0.2,0.4,0.5,0.4,0.8
			c0,0.3-0.1,0.6-0.3,0.8s-0.5,0.4-0.8,0.6C40.7,89.5,40.3,89.6,39.9,89.6z M39.9,86.2c-0.4,0-0.7-0.1-1-0.2s-0.5-0.3-0.6-0.5
			s-0.2-0.5-0.2-0.8c0-0.3,0.1-0.6,0.2-0.8s0.4-0.4,0.7-0.6c0.3-0.1,0.6-0.2,0.9-0.2s0.7,0.1,0.9,0.2s0.5,0.3,0.6,0.6
			c0.2,0.2,0.2,0.5,0.2,0.8s-0.1,0.6-0.2,0.8c-0.2,0.2-0.4,0.4-0.6,0.6C40.6,86.1,40.3,86.2,39.9,86.2z M40,85.7
			c0.2,0,0.4-0.1,0.6-0.3c0.1-0.2,0.2-0.4,0.2-0.8c0-0.4-0.1-0.6-0.2-0.9s-0.4-0.3-0.6-0.3c-0.2,0-0.4,0.1-0.6,0.3
			c-0.2,0.2-0.2,0.5-0.2,0.8s0.1,0.6,0.2,0.8C39.5,85.6,39.7,85.7,40,85.7z M42.3,83.8l-1.2-0.1l-0.4-0.4l1.6-0.2V83.8z"/>
		<path class="st1" d="M42.7,87.4l0-0.4l0.6-0.2c0,0,0-0.1,0-0.2c0-0.1,0-0.2,0-0.3c0-0.1,0-0.3,0-0.5l0-0.8c0-0.2,0-0.4,0-0.6
			c0-0.2,0-0.4-0.1-0.5l-0.6-0.1v-0.4l1.4-0.4l0.2,0.1l0,0.8l0,0c0.2-0.4,0.4-0.6,0.6-0.8c0.2-0.1,0.4-0.2,0.6-0.2
			c0.2,0,0.3,0,0.4,0.1c0.1,0.1,0.2,0.2,0.2,0.4c0,0.2-0.1,0.3-0.2,0.4c-0.1,0.1-0.3,0.1-0.4,0.1c-0.1,0-0.3,0-0.4-0.1
			c-0.1-0.1-0.2-0.1-0.3-0.2l0.2,0c-0.1,0.1-0.2,0.2-0.3,0.3c-0.1,0.1-0.2,0.3-0.3,0.5l0,0.9c0,0.2,0,0.4,0,0.6c0,0.2,0,0.3,0,0.5
			s0,0.2,0,0.3l0.8,0.1l0,0.4H42.7z"/>
		<path class="st1" d="M47.8,87.5c-0.3,0-0.5-0.1-0.7-0.2c-0.2-0.1-0.4-0.3-0.5-0.4c-0.1-0.2-0.2-0.3-0.2-0.5c0-0.2,0.1-0.4,0.2-0.6
			c0.1-0.1,0.4-0.3,0.7-0.4l1.5-0.5v-0.4c0-0.2,0-0.3-0.1-0.4s-0.2-0.2-0.4-0.3s-0.3-0.1-0.5-0.1c-0.1,0-0.3,0-0.3,0.1
			c-0.1,0.1-0.1,0.2-0.1,0.4l0,0.5c-0.3,0.1-0.5,0.1-0.7,0c-0.2-0.1-0.3-0.2-0.3-0.4c0-0.1,0.1-0.2,0.2-0.3s0.2-0.2,0.4-0.3
			c0.2-0.1,0.3-0.2,0.5-0.3c0.2-0.1,0.4-0.1,0.5-0.2c0.5,0,0.9,0.1,1.2,0.4c0.3,0.3,0.5,0.6,0.5,1l0,1.6c0,0.1,0,0.3,0,0.4
			c0,0.1,0,0.2,0,0.3l0.6,0.1v0.3L50,87.3c-0.1,0-0.2,0.1-0.3,0.1c-0.1,0-0.2,0-0.2,0c-0.2,0-0.4-0.1-0.4-0.4l-0.1-0.4l0.2,0
			c-0.2,0.2-0.4,0.4-0.6,0.6S48.1,87.5,47.8,87.5z M48.2,86.8c0.1,0,0.3,0,0.4-0.1s0.2-0.1,0.3-0.3v-1l-1,0.2
			c-0.2,0-0.3,0.1-0.3,0.2c-0.1,0.1-0.1,0.2-0.1,0.3c0,0.2,0.1,0.3,0.2,0.4S48,86.8,48.2,86.8z"/>
		<path class="st1" d="M50.9,89.5l0-0.4l0.6-0.2c0,0,0-0.1,0-0.2s0-0.2,0-0.3c0-0.1,0-0.3,0-0.5s0-0.4,0-0.7l0-2.3
			c0-0.2,0-0.4,0-0.6s0-0.3-0.1-0.5l-0.6-0.1v-0.4l1.4-0.4l0.2,0.2l-0.1,0.5l0,0c0.2-0.2,0.4-0.4,0.6-0.5c0.2-0.1,0.5-0.2,0.7-0.2
			c0.3,0,0.6,0.1,0.9,0.3c0.3,0.2,0.5,0.4,0.7,0.7c0.2,0.3,0.2,0.7,0.2,1.1c0,0.4-0.1,0.8-0.3,1.2s-0.5,0.6-0.8,0.8
			s-0.7,0.3-1.2,0.3c-0.1,0-0.3,0-0.4,0s-0.3-0.1-0.4-0.1V88c0,0.2,0,0.4,0,0.6c0,0.2,0,0.3,0,0.4l0.8,0.1l0,0.4H50.9z M53.3,86.9
			c0.2,0,0.5-0.1,0.6-0.2s0.3-0.3,0.4-0.5c0.1-0.2,0.2-0.5,0.2-0.8c0-0.3,0-0.6-0.1-0.8c-0.1-0.2-0.2-0.4-0.4-0.5
			c-0.2-0.1-0.4-0.2-0.6-0.2c-0.2,0-0.4,0-0.5,0.1c-0.2,0.1-0.3,0.2-0.4,0.4v2.3c0.1,0.1,0.3,0.2,0.4,0.2S53.2,86.9,53.3,86.9z"/>
		<path class="st1" d="M56.2,87.4l0-0.4l0.6-0.2c0-0.1,0-0.2,0-0.3s0-0.4,0-0.6c0-0.2,0-0.5,0-0.8v-1.2c0-0.2,0-0.5,0-0.7
			s0-0.5,0-0.7c0-0.2,0-0.4,0-0.6s0-0.3,0-0.4l-0.7-0.1l0-0.4l1.5-0.4l0.2,0.1c0,0.2,0,0.4,0,0.6c0,0.2,0,0.4,0,0.6
			c0,0.2,0,0.5,0,0.8s0,0.6,0,1l0,0c0.2-0.2,0.4-0.4,0.7-0.5s0.5-0.2,0.7-0.2c0.3,0,0.5,0.1,0.7,0.2c0.2,0.1,0.4,0.3,0.5,0.6
			s0.2,0.6,0.2,1v1c0,0.2,0,0.4,0,0.6c0,0.2,0,0.3,0,0.4l0.6,0.2l0,0.4h-2.1l0-0.4l0.6-0.2c0-0.1,0-0.1,0-0.2s0-0.2,0-0.3
			c0-0.1,0-0.3,0-0.4v-1c0-0.3,0-0.5-0.1-0.6s-0.2-0.3-0.3-0.4s-0.3-0.1-0.5-0.1c-0.2,0-0.4,0-0.6,0.1c-0.2,0.1-0.3,0.2-0.4,0.4v1.5
			c0,0.3,0,0.5,0,0.7c0,0.2,0,0.3,0,0.4l0.6,0.2l0,0.4H56.2z"/>
		<path class="st1" d="M63.6,87.4l-1.7-3.7l-0.5-0.2l0-0.4h2.1l0,0.4l-0.6,0.2l1.3,2.8L63.6,87.4z M66.1,83.1l0,0.4l-0.5,0.2
			L64,87.1l-0.8,1.6c-0.2,0.3-0.3,0.5-0.5,0.7c-0.2,0.1-0.4,0.2-0.6,0.2c-0.2,0-0.3,0-0.4-0.1s-0.2-0.2-0.2-0.3c0-0.1,0-0.2,0.1-0.3
			c0.1-0.1,0.2-0.2,0.4-0.2l1-0.3l-0.5,0.5l1.1-2.1l0.1-0.2l1.2-2.8l-0.6-0.2l0-0.4H66.1z"/>
	</g>
	<g>
		<g>
			<path class="st1" d="M42,3.7V2.5c0-0.2,0-0.4,0-0.5s0-0.3,0-0.3s0-0.1,0-0.1l-0.4-0.1l0-0.2h1.2l0,0.2l-0.4,0.1c0,0,0,0.1,0,0.1
				s0,0.2,0,0.3s0,0.3,0,0.5v1.3c0,0.1,0,0.3,0,0.4s0,0.3,0,0.4H42l-2.2-2.8H40v1.4c0,0.2,0,0.4,0,0.6s0,0.3,0,0.3s0,0.1,0,0.1
				l0.4,0.1l0,0.2h-1.2l0-0.2l0.4-0.1c0,0,0-0.1,0-0.1s0-0.2,0-0.3s0-0.3,0-0.6V2.3c0-0.2,0-0.3,0-0.4c0-0.1,0-0.2,0-0.3
				s0-0.1,0-0.1l-0.4-0.1l0-0.2h0.8l2,2.5H42z"/>
		</g>
		<g>
			<path class="st1" d="M40.9,68.2c-0.2,0-0.3,0-0.5-0.1S40,68,39.9,67.9l0-0.8l0.3,0l0.2,0.6c0.1,0.1,0.2,0.1,0.3,0.1s0.2,0,0.3,0
				c0.2,0,0.3,0,0.4-0.1s0.2-0.2,0.2-0.4c0-0.1,0-0.2-0.1-0.3s-0.2-0.2-0.3-0.2s-0.3-0.1-0.4-0.2s-0.3-0.1-0.4-0.2s-0.2-0.2-0.3-0.3
				s-0.1-0.3-0.1-0.5c0-0.2,0.1-0.4,0.2-0.5s0.3-0.3,0.5-0.3s0.4-0.1,0.7-0.1c0.1,0,0.2,0,0.3,0s0.2,0,0.3,0s0.2,0,0.2,0.1l0.1,0.8
				l-0.3,0L41.6,65c-0.1-0.1-0.3-0.1-0.5-0.1c-0.2,0-0.3,0-0.5,0.1s-0.2,0.2-0.2,0.4c0,0.1,0,0.3,0.1,0.3s0.2,0.2,0.3,0.2
				s0.3,0.1,0.4,0.2s0.3,0.1,0.4,0.2s0.2,0.2,0.3,0.3s0.1,0.3,0.1,0.4c0,0.2-0.1,0.4-0.2,0.5c-0.1,0.2-0.3,0.3-0.5,0.4
				S41.1,68.2,40.9,68.2z"/>
		</g>
		<g>
			<path class="st1" d="M72.3,36.4c-0.1,0-0.2,0-0.3,0s-0.2,0-0.3,0h-2l0-0.2l0.4-0.1c0,0,0-0.1,0-0.1s0-0.2,0-0.3
				c0-0.1,0-0.3,0-0.4v-1c0-0.2,0-0.3,0-0.4s0-0.2,0-0.3s0-0.1,0-0.1l-0.4-0.1l0-0.2h1.9c0.1,0,0.1,0,0.2,0s0.2,0,0.2,0s0.2,0,0.2,0
				l0.1,0.8l-0.3,0l-0.2-0.5c0,0-0.1,0-0.1,0s-0.1,0-0.1,0H71c-0.1,0-0.1,0-0.2,0s-0.1,0-0.2,0c0,0,0,0.1,0,0.1s0,0.2,0,0.2
				s0,0.2,0,0.3v1.5c0,0.1,0,0.2,0,0.3s0,0.2,0,0.2s0,0.1,0,0.1c0.1,0,0.1,0,0.2,0s0.1,0,0.2,0h0.5c0.1,0,0.2,0,0.2,0s0.1,0,0.1,0
				s0.1,0,0.1,0l0.3-0.6l0.3,0.1L72.3,36.4z M71.6,35.2l-0.1-0.4c0,0-0.1,0-0.1,0s-0.1,0-0.2,0h-0.4c-0.1,0-0.1,0-0.2,0
				s-0.1,0-0.2,0v-0.3c0.1,0,0.1,0,0.2,0s0.1,0,0.2,0h0.4c0.1,0,0.1,0,0.2,0s0.1,0,0.1,0l0.1-0.4h0.3v1.1H71.6z"/>
		</g>
		<g>
			<path class="st1" d="M11,33.9l-1,2.5H9.7l-1.3-3.1l-0.3-0.1l0-0.2h1.2l0,0.2l-0.3,0.1l0.9,2.5H9.9l0.9-2.3L11,33.9z M11.8,36.4
				l-1.2-3.1l-0.3-0.1l0-0.2h1.3l0,0.2l-0.4,0.1l0.9,2.5H12l0.9-2.5l-0.4-0.1l0-0.2h1.1l0,0.2l-0.3,0.1l-1.3,3.1H11.8z"/>
		</g>
	</g>
	<g>
		<defs>
			<path id="SVGID_00000122693650568509804550000011553035048523072922_" d="M11.9,20.5c0.7-1.7,1.3-3.8,3.1-4.5
				c0.8-0.3,1.8-0.6,2.3,0.3c0.4,0.7,0.2,2.1,0,2.9c-0.4,2.1-4,12.6-7,9.3C8.4,26.3,9.6,22.1,11.9,20.5z M21.8,8.8
				c-0.9,0.9-1.2,2-0.2,3c0.9,0.9,1.3,0.3,2.2-0.2c2-1.3,4.2-1.5,6.4-2.3c1.6-0.6,4.6-1.3,5.5-3c1.1-2.4-2.9-2.2-4.2-1.8
				C27.5,6,24.3,6.2,21.8,8.8z M51.4,8.9c1.9,1.8,4.2,2.8,6.8,3.3c1.2,0.2,3.3,0.6,3.1-1.1c-0.1-1.1-1-2.1-1.9-2.8
				C58,7,56.4,6,54.6,5.5C52.8,5,51,4.2,49.1,4.1c-0.8-0.1-1.9,0.1-2,1.1C47,5.9,47.8,6.5,48.2,7C49.8,7.3,50.5,8,51.4,8.9z
				 M65.5,20.7c0.6,1.7,0.3,3.5,1.3,5.1c1.3,2.1,4.1,3.4,5.1,0.6c0.7-1.8-0.3-4.1-1.1-5.7c-1-2-2.3-4.5-4.5-5.4
				c-0.6-0.2-2-0.6-2.5-0.1c-0.5,0.5,0.1,1.7,0.3,2.2C64.3,18.9,65.1,19.7,65.5,20.7z M65.6,46.5c-1.5,1.9-3.4,5-2.3,7.5
				c1.7,3.9,7-5.7,7.6-7c0.7-1.4,1.6-3,1.3-4.7c-0.5-2.5-3.6-1.7-3.6,0.6C67.9,44.8,66.4,45.5,65.6,46.5z M48.9,62.8
				c-1.6,1.2-2.4,3.2,0.2,3.3c1.5,0.1,2.9-0.5,4.3-1c1.8-0.6,3.7-1.2,5.2-2.4c1.4-1.1,3-2.7,2.1-4.6c-0.7-1.4-2.5-0.9-3,0.4
				C54.5,60.4,51.4,61,48.9,62.8z M33.1,65.8c1,0,1.5-0.8,1.6-1.6c0.2-1.2-0.4-1.5-1.3-2.1c-1.7-1-3.6-1.4-5.4-2.1
				c-1.5-0.6-2.9-1.4-4.5-1.8c-1-0.2-1.7-0.8-2.2,0.2c-0.7,1.3,0,2.8,1,3.7c1.9,1.7,5,1.8,7.2,2.8c0.4,0.2,0.8,0.5,1.2,0.5
				C31.3,65.6,31.8,65.4,33.1,65.8z M15,54c1.3,1.9,2.5-0.5,2.7-1.8c0.2-2-1.2-3.5-2-5.2c-0.6-1.5-1-3-2.1-4.2
				c-0.3-0.4-1.3-1.5-1.9-1.6c-1.6-0.2-1.8,3.6-1.7,4.7C10.3,49.1,12.8,51.2,15,54z"/>
		</defs>
		<clipPath id="SVGID_00000033353321820468998640000002838828354153420706_">
			<use xlink:href="#SVGID_00000122693650568509804550000011553035048523072922_"  style="overflow:visible;"/>
		</clipPath>
		<g style="clip-path:url(#SVGID_00000033353321820468998640000002838828354153420706_);">
			<g>
				<g>
					<g>
						<path class="st24" d="M40.9,65.3C40.9,65.3,40.9,65.3,40.9,65.3"/>
						<path class="st25" d="M44.8,65c14.3-1.8,25.4-13.6,26.3-28.1"/>
						<path class="st24" d="M71.2,35C71.2,34.9,71.2,34.9,71.2,35"/>
					</g>
				</g>
				<g>
					<g>
						<path class="st24" d="M10.5,34.9C10.5,34.9,10.5,34.9,10.5,34.9"/>
						<path class="st25" d="M10.8,38.9c1.8,14.3,13.6,25.4,28.1,26.3"/>
						<path class="st24" d="M40.9,65.3C40.9,65.3,40.9,65.3,40.9,65.3"/>
					</g>
				</g>
				<g>
					<g>
						<path class="st24" d="M40.9,4.6C40.9,4.6,40.9,4.6,40.9,4.6"/>
						<path class="st25" d="M36.9,4.8C22.7,6.7,11.5,18.4,10.6,32.9"/>
						<path class="st24" d="M10.5,34.9C10.5,34.9,10.5,34.9,10.5,34.9"/>
					</g>
				</g>
				<g>
					<g>
						<path class="st24" d="M71.2,34.9C71.2,34.9,71.2,34.9,71.2,34.9"/>
						<path class="st25" d="M71,31C69.1,16.7,57.4,5.6,42.9,4.6"/>
						<path class="st24" d="M40.9,4.6C40.9,4.6,40.9,4.6,40.9,4.6"/>
					</g>
				</g>
			</g>
		</g>
	</g>
</g>
<g id="Layer_2">
</g>
</svg>
