<?xml version="1.0" encoding="utf-8"?>
<!-- Generator: Adobe Illustrator 25.4.1, SVG Export Plug-In . SVG Version: 6.00 Build 0)  -->
<svg version="1.1" id="Layer_1" xmlns="http://www.w3.org/2000/svg" xmlns:xlink="http://www.w3.org/1999/xlink" x="0px" y="0px"
	 viewBox="0 0 45 45" style="enable-background:new 0 0 45 45;" xml:space="preserve">
<style type="text/css">
	.st0{fill:#FFFFFF;stroke:#FFFFFF;stroke-miterlimit:10;}
	.st1{fill:#EFA153;stroke:#FFFFFF;stroke-miterlimit:10;}
	.st2{fill:#010101;stroke:#FFFFFF;stroke-miterlimit:10;}
	.st3{fill:none;stroke:#FFFFFF;stroke-width:0.5;stroke-linecap:round;stroke-linejoin:round;stroke-miterlimit:10;}
	.st4{fill:none;}
</style>
<symbol  id="New_Symbol_00000120547971809274379970000016849643438987618725_" viewBox="-77.5 -58.2 154.2 116.4">
	<path class="st0" d="M60.2,51.1c-0.2,1.1-0.4,2-0.9,2.8c-1.3,2.4-3.9,3.8-9.2,3.8c-6.4,0.1-10.3-1.8-13.2-6.8
		c-1.3-2.2-3.3-7.5-3.9-9.9c-1.6-7.1-1.5-7.3-2-11.3c-0.3-2.8-0.5-5.9-0.5-9.3c0,0,0.3-5.4,0.6-10.8C22.4-3,4.1-0.5,4.1-0.5L4-0.8
		C0,1.1-5.4,3.3-11.7,5C-17,6.4-22.4,8.5-27.8,9.7c-8.6,1.9-16.7,7-17.3,7.4c-8.8,5.5-9.3,15.1-9.3,15.1c-6.7,4.6-4.6-9.9-4.2-9.9
		c0-0.6,0.9-3.7,2.8-7.1c0.3-0.6,0.7-1.2,1.2-1.9c-0.6,0.5-1.2,1-1.6,1.7c-0.8,1.4-1.7,2.3-2.5,3.7c-4.3,7-6.5,12.9-6.5,12.9
		s-4.2-12.1,2.4-21.7c-8.6,6.3-8.8,7.9-8.8,8C-71.8,17.4-73,2.2-59.2-5.6c0.2-0.1,0.4-0.2,0.7-0.4l0,0c-0.2,0.1-0.4,0.2-0.7,0.4
		l-0.3-0.6c0,0,1-10.3,11.5-13.6c0.5-0.2,1-0.3,1.6-0.4l0-1.2c2.1-4.2,5.6-6.1,9.5-6.4l-0.1-1.5c0,0,0.9-1.4,2.7-2.7l-0.7-0.2
		C-43.9-38.7-58-43.2-58-43.2l-0.2,0.6c-9.2-3-14-2-14-2c-0.8,0.1-1.4,0.5-2,0.9c0.3-0.3,5.4-5.7,12.3-4.1c-1.5-0.7-2.9-1.7-4.4-2.3
		c-2.2-0.9-4.2-1.9-6.3-3.1c-0.7-0.4-3.9-1.9-3.6-3.3c0.5-1.9,6.4-1.1,7.5-1.1c3.1,0.2,6.7,1,10.3,2.2l0.1-0.4c0,0,6.5-1.1,19.5,3.3
		c0,0,40.6-17.9,70.7,15.3c3.9,4.3,7.3,9.1,9.8,14.4c1.1,2.1,1.8,4.3,2.7,6.5c1,2.5,1.2,5,1.4,7.7c0,0.2,0,0.5,0.1,0.7
		c0.2,2.5,0.3,5,0.1,7.5c-0.2,3.4-0.8,6.8-1.3,10.2c-0.6,4.6-1,9.2-0.8,13.8c0.1,2-0.2,3.8,0.3,5.8c0.5,1.9,1.4,3.7,2.6,5.3
		c1.3,1.6,2.9,2.8,4.7,3.9c0.5,0.3,1,0.6,1.4,0.9l-0.1,0.2c0.6,0.3,1.3,0.8,1.8,1.4c0.6,0.7,1.2,1.3,1.7,1.9
		C59,45.9,60.7,48.2,60.2,51.1z M52.5,49.6c-1-0.1-1.9,0.7-2,1.8c-0.1,1,0.7,1.9,1.8,2c1,0.1,1.9-0.7,2-1.8S53.5,49.7,52.5,49.6z"/>
	<path class="st1" d="M69.8,51.6c0,0,7.3-0.8,6.2-3.3c-0.3-0.7-1.3-1.2-2-1.5c-1.5-0.8-3-1.3-4.6-1.8c-4.2-1.3-8.6-2-12.6-3.6
		c-1.3-0.5-2.5-1.2-3.8-1.9l-0.1,0.2c0.6,0.3,1.3,0.8,1.8,1.4c0.6,0.7,1.2,1.3,1.7,1.9c2.5,2.8,4.2,5.1,3.7,8
		c-0.2,1.1-0.4,2-0.9,2.8L60,54c0.8-0.7,1.6-1.1,2.5-1.6L69.8,51.6z"/>
	<circle class="st2" cx="52.3" cy="51.5" r="1.9"/>
	<path class="st3" d="M-74.1-43.7L-74.1-43.7c0.6-0.4,1.2-0.8,2-0.9c0,0,4.8-1.1,14,2C-53-41-46.4-38-38.5-32.8
		c0.8,0.5,1.2,1.2,1.8,1.8"/>
	<path class="st3" d="M-38.2-46.7c0,0-10-5.5-20.1-8.7c-3.6-1.1-7.2-2-10.3-2.2c-1.2-0.1-7-0.9-7.5,1.1c-0.4,1.4,2.9,3,3.6,3.3
		c2.1,1.1,4.1,2.2,6.3,3.1c1.5,0.6,2.9,1.6,4.4,2.3c-6.9-1.6-12,3.8-12.3,4.1"/>
	<path class="st3" d="M-32.3-33.4c2.5-1.2,5.9-1.8,10.2-0.1c0,0,10.5,4.2,18.9,13.8c0.2,0.2,0.4,0.5,0.6,0.7"/>
	<path class="st3" d="M-37.1-29.5c0,0,0.9-1.4,2.7-2.7"/>
	<path class="st3" d="M35-33.6c-1-1.2-2-2.4-3-3.5C1.9-70.4-38.7-52.4-38.7-52.4c-13-4.4-19.5-3.3-19.5-3.3"/>
	<path class="st3" d="M32-37.2c3.9,4.3,7.3,9.1,9.8,14.4c1.1,2.1,1.8,4.3,2.7,6.5c1,2.5,1.2,5,1.4,7.7c0,0.2,0,0.5,0.1,0.7
		c0.2,2.5,0.3,5,0.1,7.5c-0.2,3.4-0.8,6.8-1.3,10.2c-0.6,4.6-1,9.2-0.8,13.8c0.1,2-0.2,3.8,0.3,5.8c0.5,1.9,1.4,3.7,2.6,5.3
		c1.3,1.6,2.9,2.8,4.7,3.9c0.5,0.3,1,0.6,1.4,0.9c1.2,0.7,2.4,1.4,3.8,1.9c4.1,1.6,8.5,2.3,12.6,3.6c1.6,0.5,3.1,1.1,4.6,1.8
		c0.7,0.3,1.6,0.8,2,1.5c1.1,2.5-6.2,3.3-6.2,3.3l-7.3,0.8c-0.9,0.4-1.7,0.8-2.5,1.6"/>
	<path class="st3" d="M45.2,39.3c0,0,4.3-1.4,7.7,0.4c0.6,0.3,1.3,0.8,1.8,1.4c0.6,0.7,1.2,1.3,1.7,1.9c2.5,2.8,4.2,5.1,3.7,8
		c-0.2,1.1-0.4,2-0.9,2.8c-1.3,2.4-3.9,3.8-9.2,3.8c-6.4,0.1-10.3-1.8-13.2-6.8c-1.3-2.2-3.3-7.5-3.9-9.9c-1.6-7.1-1.5-7.3-2-11.3
		c-0.3-2.8-0.5-5.9-0.5-9.3c0,0,0.3-5.4,0.6-10.8c0-0.8,0.1-1.6,0.1-2.4C31.8,1.2,30-3,30-3"/>
	<path class="st3" d="M4.1-0.5c0,0,18.2-2.5,27.2,10"/>
	<path class="st3" d="M11.3-4.9c0,0-2.7,1.8-7.4,4.1C0,1.1-5.4,3.3-11.7,5C-17,6.4-22.4,8.5-27.8,9.7c-8.6,1.9-16.7,7-17.3,7.4
		c-8.8,5.5-9.3,15.1-9.3,15.1c-6.7,4.6-4.6-9.9-4.2-9.9c0-0.6,0.9-3.7,2.8-7.1c0.3-0.6,0.7-1.2,1.2-1.9"/>
	<path class="st3" d="M-37-28c-3.9,0.4-7.4,2.2-9.5,6.4"/>
	<path class="st3" d="M-59.6-6.2c0,0,1-10.3,11.5-13.6c0.5-0.2,1-0.3,1.6-0.4"/>
	<path class="st3" d="M-71.7,18c0-0.1,0.3-1.7,8.8-8"/>
	<path class="st3" d="M-59.2-5.6C-73,2.2-71.8,17.4-71.7,18c0,0,0,0,0,0"/>
	<path class="st3" d="M-62.9,10c-6.6,9.6-2.4,21.7-2.4,21.7s2.1-5.9,6.5-12.9c0.8-1.3,1.7-2.3,2.5-3.7c0.4-0.7,1-1.2,1.6-1.7
		c0,0,0,0,0,0c0.4-0.3,0.7-0.6,0.9-1"/>
	<path class="st3" d="M-19.2-45c0,0,8.9-4.1,21.1-1.1"/>
	<path class="st3" d="M-34.4-32.1c0.6-0.4,1.3-0.9,2.1-1.3"/>
	<path class="st3" d="M-39.7-1c1.5-1.1,3.6-2.6,5.5-4.1c0.8-0.6,1.6-1.2,2.5-1.8c1.1-0.8,2.3-1.6,3.6-2.5c2.3-1.6,4.8-3.2,7.3-4.8
		c0.7-0.5,1.4-0.9,2.1-1.4c1.4-0.9,2.7-1.8,4.1-2.7c0.6-0.4,1.2-0.8,1.8-1.2"/>
	<path class="st3" d="M-54.7,13.4c2.6-3.9,6.6-8.3,12.9-12.9c0,0,0.8-0.6,2-1.5"/>
	<path class="st3" d="M-10.5-18.2c0,0-0.8-0.6-2.2-1.5c-3.7-2.3-11.4-6.7-18.7-8c-1.9-0.3-3.8-0.5-5.5-0.3"/>
	<path class="st3" d="M-46.5-20.3c6.1-1.4,14.9-0.7,27.8,4.7"/>
	<path class="st3" d="M-28.1-9.4c-14.8-2-24.7,0.1-31.1,3.8"/>
	<path class="st3" d="M-39.7-1L-39.7-1c-12.7,1.2-19.6,5.7-23.2,11l0,0"/>
</symbol>
<rect x="0" y="3.9" class="st4" width="45" height="34.3"/>
<use xlink:href="#New_Symbol_00000120547971809274379970000016849643438987618725_"  width="154.2" height="116.4" id="XMLID_00000137118124085523725600000005544567793818925729_" x="-77.5" y="-58.2" transform="matrix(0.2906 0 0 -0.2906 22.5075 24.303)" style="overflow:visible;"/>
</svg>
