<?xml version="1.0" encoding="utf-8"?>
<!-- Generator: Adobe Illustrator 25.4.1, SVG Export Plug-In . SVG Version: 6.00 Build 0)  -->
<svg version="1.1" xmlns="http://www.w3.org/2000/svg" xmlns:xlink="http://www.w3.org/1999/xlink" x="0px" y="0px"
	 viewBox="0 0 68.4 95.1" style="enable-background:new 0 0 68.4 95.1;" xml:space="preserve">
<style type="text/css">
	.st0{fill:#D1B788;}
	.st1{fill:#FFFFFF;}
	.st2{fill:url(#SVGID_1_);}
	.st3{fill:none;stroke:#D8D4CB;stroke-width:2.5;stroke-linecap:round;stroke-linejoin:round;stroke-miterlimit:10;}
	.st4{fill:none;stroke:#D8D4CB;stroke-width:2.5;stroke-linejoin:round;stroke-miterlimit:10;}
	.st5{fill:none;stroke:#000000;stroke-width:2.5;stroke-linecap:round;stroke-linejoin:round;stroke-miterlimit:10;}
	.st6{display:none;}
	.st7{display:inline;fill:none;stroke:#FFFFFF;stroke-width:2;stroke-linecap:round;stroke-linejoin:round;stroke-miterlimit:10;}
	.st8{fill:#333333;}
	.st9{display:inline;}
	.st10{fill:none;stroke:#DBD1C8;stroke-width:4;stroke-linecap:round;stroke-linejoin:round;stroke-miterlimit:10;}
	.st11{fill:#DBD1C8;}
	.st12{fill:#EFA153;}
	.st13{fill:#010101;}
	.st14{stroke:#DBD1C8;stroke-width:4;stroke-miterlimit:10;}
	.st15{fill:#F9E3C7;}
	.st16{fill:none;stroke:#000000;stroke-linecap:round;stroke-linejoin:round;stroke-miterlimit:10;}
	.st17{fill:none;stroke:#665D52;stroke-linecap:round;stroke-linejoin:round;stroke-miterlimit:10;stroke-dasharray:0,1.75;}
	.st18{fill:#898989;}
	.st19{fill:#9B8C79;}
	.st20{fill:#665D52;stroke:#000000;stroke-miterlimit:10;}
	.st21{fill:none;stroke:#000000;stroke-miterlimit:10;}
	.st22{fill:#494949;}
	.st23{fill:none;}
	.st24{fill:#EFEAE4;stroke:#333333;stroke-width:0.75;stroke-linecap:round;stroke-linejoin:round;stroke-miterlimit:10;}
	.st25{font-family:'CrimsonPro-Medium';}
	.st26{font-size:10px;}
	.st27{font-size:6px;}
	.st28{clip-path:url(#SVGID_00000007387131269448882350000008554645143753776550_);}
	.st29{fill:none;stroke:#898989;stroke-linecap:round;stroke-linejoin:round;}
	.st30{fill:none;stroke:#898989;stroke-linecap:round;stroke-linejoin:round;stroke-dasharray:4.903403e-02,3.9227;}
</style>
<symbol  id="New_Symbol_1" viewBox="-77.4 -59 154.8 118">
	<g>
		<g>
			<g>
				<path class="st0" d="M69.8,51.6c0,0,7.3-0.8,6.2-3.3c-0.3-0.7-1.3-1.2-2-1.5c-1.5-0.8-3-1.3-4.6-1.8c-4.2-1.3-8.6-2-12.6-3.6
					c-1.2-0.5-2.3-1.1-3.5-1.7l-0.1,0.2c0.5,0.3,1,0.7,1.5,1.2c0.6,0.7,1.2,1.3,1.7,1.9c2.5,2.8,4.2,5.1,3.7,8
					c-0.2,1.1-0.4,2-0.9,2.8L60,54c0.8-0.7,1.6-1.1,2.5-1.6L69.8,51.6z"/>
				<path class="st1" d="M-32.3-33.4c2.5-1.2,5.9-1.8,10.2-0.1c0,0,10.5,4.2,18.9,13.8l-0.3,0.2c-0.2,0-0.4,0-0.6,0
					C-5-19.8-5.9-20.3-6.7-21c-1.3-1.1-2.5-2.4-3.8-3.5c-1.6-1.3-3.2-2.3-4.9-3.4c-1.2-0.8-2.5-1.3-3.8-2c-1.2-0.6-2.4-1.2-3.7-1.7
					c-1.4-0.5-2.8-0.9-4.3-1.3c-1-0.2-2-0.5-3.1-0.6c-0.6,0-1.4,0.1-2,0.2L-32.3-33.4z M56.5,43c-0.6-0.6-1.1-1.3-1.7-1.9
					c-0.5-0.5-1-0.9-1.5-1.2l0.1-0.2c-0.6-0.3-1.2-0.7-1.7-1c-1.8-1-3.4-2.2-4.7-3.9c-1.2-1.6-2.2-3.4-2.6-5.3
					c-0.5-1.9-0.2-3.8-0.3-5.8c-0.2-4.6,0.2-9.3,0.8-13.8c0.5-3.4,1.1-6.8,1.3-10.2c0.2-2.5,0.1-5.1-0.1-7.5c0-0.2,0-0.5-0.1-0.7
					c-0.2-2.7-0.4-5.2-1.4-7.7c-0.9-2.2-1.6-4.4-2.7-6.5c-2.6-5.2-6-10-9.8-14.4C1.9-70.4-38.6-52.4-38.6-52.4
					c-13-4.4-19.5-3.3-19.5-3.3l-0.1,0.4c-3.6-1.1-7.2-2-10.3-2.2c-1.2-0.1-7-0.9-7.5,1.1c-0.4,1.4,2.9,3,3.6,3.3
					c2.1,1.1,4.1,2.2,6.3,3.1c1.5,0.6,2.9,1.6,4.4,2.3c-6.9-1.6-12,3.8-12.3,4.1c0.6-0.4,1.2-0.8,2-0.9c0,0,4.8-1.1,14,2l0.2-0.6
					c0,0,14.1,4.5,22.9,10.9l0.7,0.2c-1.8,1.3-2.7,2.7-2.7,2.7L-37-28c1.8-0.2,3.6,0,5.5,0.3c7.3,1.3,15,5.7,18.7,8l-0.1,0.1
					c-0.6,0.4-1.2,0.8-1.8,1.2c-1.3,0.9-2.7,1.8-4.1,2.7c-0.7,0.5-1.4,0.9-2.1,1.4c-2.5,1.6-5,3.3-7.3,4.9c-1.2,0.8-2.5,1.7-3.6,2.5
					c-0.9,0.6-1.7,1.2-2.5,1.8c-2,1.5-4.1,3-5.5,4.1l0,0c-1.2,0.9-2,1.5-2,1.5c-6.3,4.6-10.4,9.1-12.9,12.9c0,0,0,0,0,0
					c-0.4,0.6-0.8,1.3-1.2,1.9c-2,3.4-2.8,6.4-2.8,7.1c-0.3,0-2.4,14.4,4.2,9.9c0,0,0.6-9.6,9.3-15.1c0.6-0.4,8.8-5.5,17.3-7.4
					C-22.4,8.5-17,6.4-11.7,5C-5.4,3.3,0,1.1,4-0.8l0.2,0.4c0,0,18.2-2.5,27.2,10c-0.3,5.4-0.6,10.8-0.6,10.8c0,3.4,0.1,6.5,0.5,9.3
					c0.5,4,0.3,4.2,1.9,11.3c0.6,2.4,2.6,7.7,3.9,9.9c2.9,5,6.9,6.9,13.3,6.8c5.3-0.1,7.9-1.4,9.2-3.9c0.4-0.8,0.7-1.7,0.9-2.8
					C60.7,48.2,59,45.9,56.5,43z M54.2,51.6c-0.1,1-0.9,1.8-2,1.8c-1-0.1-1.8-0.9-1.8-2c0.1-1,0.9-1.8,2-1.8
					C53.5,49.7,54.3,50.6,54.2,51.6z M1.9-46.1L-19.2-45C-19.2-45-10.3-49.1,1.9-46.1z"/>
				<circle cx="52.4" cy="51.5" r="1.9"/>
				<linearGradient id="SVGID_1_" gradientUnits="userSpaceOnUse" x1="-19.0926" y1="-46.4489" x2="1.8259" y2="-45.2181">
					<stop  offset="0" style="stop-color:#FFFFFF"/>
					<stop  offset="1" style="stop-color:#000000"/>
				</linearGradient>
				<path class="st2" d="M-19.2-45l21.1-1.1C-10.3-49.1-19.2-45-19.2-45z"/>
				<path class="st1" d="M-12.8-19.6l0.1-0.1c-3.7-2.3-11.4-6.7-18.7-8l0,0.1c0.2,0.1,0.7,0.2,1,0.3c0.9,0.2,1.7,0.4,2.6,0.8
					c2,0.8,3.9,1.9,5.8,2.9c2,1,3.8,2,5.5,3.4c0.6,0.5,1.3,1.1,1.9,1.7l0.1,0.1C-14-18.8-13.4-19.2-12.8-19.6z"/>
				<path class="st1" d="M-14.6-18.4l-0.1-0.1c-0.5-0.6-1.2-1.1-1.9-1.7c-1.7-1.4-3.5-2.4-5.5-3.4c-1.9-1-3.8-2.1-5.8-2.9
					c-0.9-0.4-1.7-0.5-2.6-0.8c-0.3-0.1-0.7-0.1-1-0.3l0-0.1c-1.9-0.3-3.8-0.5-5.5-0.3c-3.9,0.4-7.3,2.2-9.5,6.4l0,1.2
					c6.1-1.4,14.9-0.7,27.8,4.7l0,0C-17.3-16.5-15.9-17.5-14.6-18.4z"/>
				<path class="st1" d="M-18.7-15.6L-18.7-15.6c-12.9-5.4-21.8-6.1-27.8-4.7c-0.5,0.1-1.1,0.3-1.6,0.4l0,0c0,0,5.7-0.6,11.4,0.2
					c5.5,0.7,9.7,2.6,15.7,5.1l0.2,0.3C-20.1-14.7-19.4-15.2-18.7-15.6z"/>
				<path class="st1" d="M-20.8-14.3l-0.2-0.3c-6-2.4-10.1-4.3-15.7-5.1c-5.8-0.8-11.4-0.2-11.4-0.2l0,0
					C-58.6-16.5-59.6-6.2-59.6-6.2l0.3,0.6c6.5-3.7,16.3-5.7,31.1-3.8l0,0C-25.7-11-23.3-12.6-20.8-14.3z"/>
				<path class="st1" d="M-31.7-6.9c1.1-0.8,2.3-1.6,3.6-2.5l0,0c-14.8-2-24.7,0.1-31.1,3.8C-73,2.2-71.8,17.4-71.7,18
					c0-0.1,0.3-1.7,8.8-8c3.6-5.3,10.5-9.8,23.2-11l0,0c1.5-1.1,3.6-2.6,5.5-4.1C-33.4-5.7-32.5-6.3-31.7-6.9z"/>
				<path class="st1" d="M-41.8,0.4c0,0,0.8-0.6,2-1.5c-12.7,1.3-19.6,5.7-23.2,11c-6.6,9.6-2.4,21.7-2.4,21.7s2.1-5.9,6.5-12.9
					c0.8-1.3,1.7-2.3,2.5-3.7c0.4-0.7,1-1.2,1.6-1.7c0,0,0,0,0,0C-52.1,9.5-48.1,5.1-41.8,0.4z"/>
			</g>
			<g>
				<path class="st3" d="M-58-43.2c0,0,14.1,4.5,22.9,10.9"/>
				<path class="st4" d="M-31.5-6.8c0,0,0-0.1-0.1-0.2c-1.5-1-15.5-5.1-27.6,2"/>
				<path class="st4" d="M-21-14.6c-6-2.4-10.1-4.3-15.7-5.1c-5.8-0.8-11.4-0.2-11.4-0.2"/>
				<path class="st4" d="M-3.5-19.4c-0.2,0-0.4,0-0.6,0C-5-19.8-5.9-20.3-6.7-21c-1.3-1.1-2.5-2.4-3.8-3.5c-1.6-1.3-3.2-2.3-4.9-3.4
					c-1.2-0.8-2.5-1.3-3.8-2c-1.2-0.6-2.4-1.2-3.7-1.7c-1.4-0.5-2.8-0.9-4.3-1.3c-1-0.2-2-0.5-3.1-0.6c-0.6,0-1.4,0.1-2,0.2"/>
				<path class="st4" d="M-14.7-18.5c-0.5-0.6-1.2-1.1-1.9-1.7c-1.7-1.4-3.5-2.4-5.5-3.4c-1.9-1-3.8-2.1-5.8-2.9
					c-0.9-0.4-1.7-0.5-2.6-0.8c-0.3-0.1-0.7-0.1-1-0.3"/>
				<path class="st4" d="M45.1,42c1.7-0.4,5.5-0.9,11.4,1.1"/>
				<path class="st5" d="M-74.1-43.7L-74.1-43.7c0.6-0.4,1.2-0.8,2-0.9c0,0,4.8-1.1,14,2C-53-41-46.4-38-38.5-32.8
					c0.8,0.5,1.2,1.2,1.8,1.8"/>
				<path class="st5" d="M-38.2-46.7c0,0-10-5.5-20.1-8.7c-3.6-1.1-7.2-2-10.3-2.2c-1.2-0.1-7-0.9-7.5,1.1c-0.4,1.4,2.9,3,3.6,3.3
					c2.1,1.1,4.1,2.2,6.3,3.1c1.5,0.6,2.9,1.6,4.4,2.3c-6.9-1.6-12,3.8-12.3,4.1"/>
				<path class="st5" d="M-71.4-57c0,0,9.9,3.4,14.4,6.8"/>
				<path class="st5" d="M-37.1-29.5c0,0,0.9-1.4,2.7-2.7c0.6-0.4,1.3-0.9,2.1-1.3c2.5-1.2,5.9-1.8,10.2-0.1c0,0,10.5,4.2,18.9,13.8
					c0.2,0.2,0.4,0.5,0.6,0.7"/>
				<path class="st5" d="M35-33.6c-1-1.2-2-2.4-3-3.5C1.9-70.4-38.6-52.4-38.6-52.4c-13-4.4-19.5-3.3-19.5-3.3"/>
				<path class="st5" d="M32-37.2c3.9,4.3,7.3,9.1,9.8,14.4c1.1,2.1,1.8,4.3,2.7,6.5c1,2.5,1.2,5,1.4,7.7C46-8.3,46-8.1,46-7.8
					c0.2,2.5,0.3,5,0.1,7.5c-0.2,3.4-0.8,6.8-1.3,10.2c-0.6,4.6-1,9.2-0.8,13.8c0.1,2-0.2,3.8,0.3,5.8c0.5,1.9,1.4,3.7,2.6,5.3
					c1.3,1.6,2.9,2.8,4.7,3.9c0.6,0.3,1.2,0.7,1.7,1c1.1,0.6,2.2,1.3,3.5,1.7c4.1,1.6,8.5,2.3,12.6,3.6c1.6,0.5,3.1,1.1,4.6,1.8
					c0.7,0.3,1.6,0.8,2,1.5c1.1,2.5-6.2,3.3-6.2,3.3l-7.3,0.8c-0.9,0.4-1.7,0.8-2.5,1.6"/>
				<path class="st5" d="M45.2,39.3c0,0,4.6-1.5,8.1,0.5c0.5,0.3,1,0.7,1.5,1.2c0.6,0.7,1.2,1.3,1.7,1.9c2.5,2.8,4.2,5.1,3.7,8
					c-0.2,1.1-0.4,2-0.9,2.8c-1.3,2.4-3.9,3.8-9.2,3.9c-6.4,0.1-10.3-1.8-13.3-6.8c-1.3-2.2-3.3-7.5-3.9-9.9
					c-1.6-7.1-1.5-7.3-1.9-11.3c-0.3-2.8-0.5-5.9-0.5-9.3c0,0,0.3-5.4,0.6-10.8c0-0.8,0.1-1.6,0.1-2.4C31.8,1.2,30-3,30-3"/>
				<path class="st5" d="M4.1-0.5c0,0,18.2-2.5,27.2,10"/>
				<path class="st5" d="M-39.7-1.1c1.5-1.1,3.6-2.6,5.5-4.1c0.8-0.6,1.6-1.2,2.5-1.8c1.1-0.8,2.3-1.6,3.6-2.5
					c2.3-1.6,4.8-3.2,7.3-4.9c0.7-0.5,1.4-0.9,2.1-1.4c1.4-0.9,2.7-1.8,4.1-2.7c0.6-0.4,1.2-0.8,1.8-1.2"/>
				<path class="st5" d="M-54.7,13.4c2.6-3.9,6.6-8.3,12.9-12.9c0,0,0.8-0.6,2-1.5"/>
				<path class="st5" d="M11.3-4.9c0,0-2.7,1.8-7.4,4.1C0,1.1-5.4,3.3-11.7,5C-17,6.4-22.4,8.5-27.8,9.7c-8.6,1.9-16.7,7-17.3,7.4
					c-8.8,5.5-9.3,15.1-9.3,15.1c-6.7,4.6-4.6-9.9-4.2-9.9c0-0.6,0.9-3.7,2.8-7.1c0.3-0.6,0.7-1.2,1.2-1.9"/>
				<path class="st5" d="M-10.5-18.2c0,0-0.8-0.6-2.2-1.5c-3.7-2.3-11.4-6.7-18.7-8c-1.9-0.3-3.8-0.5-5.5-0.3
					c-3.9,0.4-7.3,2.2-9.5,6.4"/>
				<path class="st5" d="M-59.6-6.2c0,0,1-10.3,11.5-13.6c0.5-0.2,1-0.3,1.6-0.4c6.1-1.4,14.9-0.7,27.8,4.7"/>
				<path class="st5" d="M-71.7,18c0-0.1,0.3-1.7,8.8-8"/>
				<path class="st5" d="M-28.1-9.4c-14.8-2-24.7,0.1-31.1,3.8C-73,2.2-71.8,17.4-71.7,18c0,0,0,0,0,0"/>
				<path class="st5" d="M-39.7-1.1L-39.7-1.1c-12.7,1.2-19.6,5.7-23.2,11c-6.6,9.6-2.4,21.7-2.4,21.7s2.1-5.9,6.5-12.9
					c0.8-1.3,1.7-2.3,2.5-3.7c0.4-0.7,1-1.2,1.6-1.7c0,0,0,0,0,0c0.4-0.3,0.7-0.6,0.9-1"/>
				<path class="st5" d="M-14.4-34.1c0,0,7.3,2.9,16.3,12.4"/>
				<path class="st5" d="M-19.2-45c0,0,8.8-4.1,21.1-1.1"/>
				<path class="st5" d="M-22.9-51.6c0,0,17.5-4,31,2.2"/>
			</g>
		</g>
	</g>
</symbol>
<g id="Layer_1">
	<g id="New_Symbol_00000069375921941586325320000009336810126453050289_" class="st6">
		<path class="st7" d="M20.8,38.3c1.7,0.4,4.2,0.2,7.9-1.3 M26,35.2c-4.2,0.6-7,0-8.9-1.1 M22.7,32.8L22.7,32.8
			c-3.6-0.4-5.6-1.6-6.6-3.1l0,0 M17.8,44.5l-0.3,0.1c-2.6,0.9-4,0.6-4,0.6c-0.2,0-0.4-0.2-0.6-0.3c0.1,0.1,1.5,1.6,3.5,1.2
			c-0.4,0.2-0.8,0.5-1.3,0.6c-0.6,0.3-1.2,0.6-1.8,0.9c-0.2,0.1-1.1,0.5-1,1c0.1,0.6,1.8,0.3,2.2,0.3c0.9-0.1,1.9-0.3,2.9-0.6v0.1
			c0,0,1.8,0.3,5.6-0.9c0,0,11.6,5.1,20.2-4.4c1.1-1.2,2.1-2.6,2.8-4.1c0.3-0.6,0.5-1.2,0.8-1.9s0.3-1.4,0.4-2.2c0-0.1,0-0.1,0-0.2
			c0.1-0.7,0.1-1.4,0-2.1c-0.1-1-0.2-1.9-0.4-2.9c-0.2-1.3-0.3-2.6-0.2-3.9c0-0.6-0.1-1.1,0.1-1.6c0.1-0.6,0.4-1.1,0.8-1.5
			c0.4-0.5,0.8-0.8,1.3-1.1c0.1-0.1,0.3-0.2,0.4-0.2l0,0c0.2-0.1,0.4-0.2,0.5-0.4c0.2-0.2,0.3-0.4,0.5-0.6c0.7-0.8,1.2-1.5,1.1-2.3
			c0-0.3-0.1-0.6-0.2-0.8c-0.4-0.7-1.1-1.1-2.6-1.1c-1.8,0-2.9,0.5-3.8,1.9c-0.4,0.6-0.9,2.1-1.1,2.8c-0.5,2-0.4,2.1-0.6,3.2
			c-0.2,0.7-0.2,1.6-0.2,2.6c0,0,0.1,1.6,0.2,3.1c-2.5,3.6-7.7,2.9-7.7,2.9v0.1c-1.1-0.5-2.7-1.2-4.5-1.7c-1.5-0.4-3.1-1-4.6-1.3
			c-2.4-0.5-4.8-2-4.9-2.1c-2.5-1.6-2.7-4.3-2.7-4.3c-1.9-1.3-1.3,2.8-1.2,2.8c0,0.2,0.2,1.1,0.8,2c0.1,0.2,0.2,0.4,0.3,0.5
			c-0.2-0.1-0.3-0.3-0.5-0.5c-0.2-0.4-0.5-0.7-0.7-1c-1.2-2-1.8-3.7-1.8-3.7s-1.2,3.5,0.7,6.2c-2.4-1.8-2.5-2.3-2.5-2.3
			c0,0.2-0.3,4.5,3.6,6.7c0.1,0,0.1,0.1,0.2,0.1l0,0c-0.1,0-0.1-0.1-0.2-0.1l-0.1,0.2c0,0,0.3,2.9,3.3,3.9c0.1,0,0.3,0.1,0.4,0.1
			v0.4c0.6,1.2,1.6,1.7,2.7,1.8v0.4c0,0-0.4,0.2,0.1,0.6C21,43.4,17.8,44.5,17.8,44.5z M54,17.8c0,0,2.1,0.2,1.8,0.9
			c-0.1,0.2-0.4,0.3-0.6,0.4c-0.4,0.2-0.9,0.4-1.3,0.5c-1.2,0.4-2.4,0.6-3.6,1c-0.4,0.1-0.7,0.3-1.1,0.5l0,0
			c0.2-0.1,0.4-0.2,0.5-0.4c0.2-0.2,0.3-0.4,0.5-0.6c0.7-0.8,1.2-1.5,1.1-2.3c0-0.3-0.1-0.6-0.2-0.8h0.2c0.2,0.2,0.4,0.3,0.7,0.4
			L54,17.8z M49,18.3c0.3,0,0.5-0.2,0.5-0.5s-0.2-0.5-0.5-0.5s-0.5,0.2-0.5,0.5S48.7,18.3,49,18.3z M23.2,45.8c0,0-2.9,1.6-5.7,2.5
			c-1,0.3-2.1,0.6-2.9,0.6c-0.3,0-2,0.2-2.2-0.3c-0.1-0.4,0.8-0.8,1-1c0.6-0.3,1.2-0.6,1.8-0.9c0.4-0.2,0.8-0.5,1.3-0.6
			c-2,0.5-3.4-1.1-3.5-1.2 M27.7,42c0,0,3-1.2,5.4-3.9c0.1-0.1,0.1-0.1,0.2-0.2 M44,42.1c-0.3,0.4-0.6,0.7-0.9,1
			c-8.6,9.5-20.2,4.4-20.2,4.4c-3.7,1.3-5.6,0.9-5.6,0.9 M43.2,43.1c1.1-1.2,2.1-2.6,2.8-4.1c0.3-0.6,0.5-1.2,0.8-1.9
			s0.3-1.4,0.4-2.2c0-0.1,0-0.1,0-0.2c0.1-0.7,0.1-1.4,0-2.1c-0.1-1-0.2-1.9-0.4-2.9c-0.2-1.3-0.3-2.6-0.2-3.9
			c0-0.6-0.1-1.1,0.1-1.6c0.1-0.6,0.4-1.1,0.8-1.5c0.4-0.5,0.8-0.8,1.3-1.1c0.1-0.1,0.3-0.2,0.4-0.2c0.3-0.2,0.7-0.4,1.1-0.5
			c1.2-0.5,2.4-0.6,3.6-1c0.5-0.1,0.9-0.3,1.3-0.5c0.2-0.1,0.5-0.2,0.6-0.4c0.3-0.7-1.8-0.9-1.8-0.9l-2.1-0.2
			c-0.3-0.1-0.5-0.2-0.7-0.4 M46.9,21.3c0,0,1.2,0.4,2.2-0.1c0.2-0.1,0.4-0.2,0.5-0.4c0.2-0.2,0.3-0.4,0.5-0.6
			c0.7-0.8,1.2-1.5,1.1-2.3c0-0.3-0.1-0.6-0.2-0.8c-0.4-0.7-1.1-1.1-2.6-1.1c-1.8,0-2.9,0.5-3.8,1.9c-0.4,0.6-0.9,2.1-1.1,2.8
			c-0.5,2-0.4,2.1-0.6,3.2c-0.1,0.9-0.1,1.8-0.1,2.8c0,0,0.1,1.6,0.2,3.1c0,0.2,0,0.5,0,0.7c0.1,1.7-0.4,2.9-0.4,2.9 M35.2,32.6
			c0,0,5.2,0.7,7.7-2.9 M37.3,33.9c0,0-0.8-0.5-2.1-1.2c-1.1-0.5-2.7-1.2-4.5-1.7c-1.5-0.4-3.1-1-4.6-1.3c-2.4-0.5-4.8-2-4.9-2.1
			c-2.5-1.6-2.7-4.3-2.7-4.3c-1.9-1.3-1.3,2.8-1.2,2.8c0,0.2,0.2,1.1,0.8,2c0.1,0.2,0.2,0.4,0.3,0.5 M23.5,40.5
			c-1.1-0.1-2.1-0.6-2.7-1.8 M17.1,34.3c0,0,0.3,2.9,3.3,3.9c0.1,0,0.3,0.1,0.4,0.1 M13.6,27.4c0,0,0.1,0.5,2.5,2.3 M17.2,34.1
			c-3.9-2.2-3.6-6.6-3.6-6.7l0,0 M16.1,29.6c-1.9-2.7-0.7-6.2-0.7-6.2s0.6,1.7,1.8,3.7c0.2,0.4,0.5,0.7,0.7,1
			c0.1,0.2,0.3,0.3,0.5,0.5l0,0c0.1,0.1,0.2,0.2,0.3,0.3 M28.6,45.3c0,0,2.5,1.2,6,0.3 M22.7,32.8c0.4,0.3,1,0.7,1.6,1.2
			c0.2,0.2,0.5,0.3,0.7,0.5c0.3,0.2,0.7,0.5,1,0.7c0.7,0.4,1.4,0.9,2.1,1.4c0.2,0.1,0.4,0.3,0.6,0.4c0.4,0.3,0.8,0.5,1.2,0.8
			c0.2,0.1,0.3,0.2,0.5,0.3 M18.5,28.7c0.7,1.1,1.9,2.4,3.7,3.7c0,0,0.2,0.2,0.6,0.4 M31.1,37.7c0,0-0.2,0.2-0.6,0.4
			c-1.1,0.7-3.2,1.9-5.3,2.3c-0.5,0.1-1.1,0.1-1.6,0.1"/>
		<path class="st8" d="M38.4,7.7L38.4,7.7H7.7v30.7v1.2v30.7h30.7l0,0c17,0,30.7-13.8,30.7-30.7v-1.2V7.7H38.4z"/>
		<g class="st9">
			<circle class="st8" cx="34.3" cy="34" r="33.3"/>
		</g>
	</g>
	<g id="Layer_1_00000174569064919593886920000015350518901294118326_">
		<g id="New_Symbol_00000067203307216639356510000011862188654588038303_">
			<path class="st10" d="M20.7,39.4c1.8,0.4,4.3,0.2,8-1.4"/>
			<path class="st10" d="M26.1,36.2c-4.3,0.6-7.1,0-9-1.1"/>
			<path class="st10" d="M22.7,33.8L22.7,33.8C19,33.4,17,32.1,16,30.6l0,0"/>
			<g>
				<path class="st1" d="M30.4,48.1c-3.8,0-6.6-1.2-6.6-1.2c-0.3-0.1-0.5-0.2-0.8-0.2c-0.2,0-0.4,0-0.6,0.1c-2,0.7-3.4,0.8-4.1,0.9
					l0,0l0,0c0.2-0.1,3.6-1.3,6.5-3.4c0.5-0.4,0.8-1,0.8-1.6c0-0.2,0-0.4-0.1-0.6v-0.3c0.1-1.1-0.7-2-1.8-2.1c-0.4,0-0.7-0.2-1-0.5
					c-0.1-0.8-0.7-1.5-1.5-1.7c-0.1,0-0.2-0.1-0.3-0.1c-1-0.3-1.5-1-1.7-1.6c0.3-0.9-0.1-1.8-1-2.3l-0.1-0.1c-0.5-0.3-0.9-0.6-1.2-1
					c0.2-0.1,0.4-0.2,0.6-0.4c0.2-0.2,0.3-0.4,0.4-0.6c0.2,0.1,0.4,0.1,0.6,0.1c0.5,0,0.9-0.2,1.3-0.5c0.2-0.2,0.4-0.5,0.5-0.8
					c0.6,0.4,2.9,1.8,5.5,2.3c0.8,0.2,1.7,0.4,2.6,0.7c0.7,0.2,1.4,0.4,2,0.6c1.4,0.4,2.8,0.9,4.2,1.6c0.3,0.1,0.6,0.2,0.9,0.2
					c0.2,0,0.3,0,0.5-0.1c0.2,0,0.4,0,0.7,0c2.1,0,6-0.5,8.4-3.8c0.2-0.2,0.3-0.5,0.3-0.8l0.1,0.5c0.1,0.8,0.2,1.5,0.3,2.2
					c0,0.6,0,1.3,0,1.9v0.3c-0.4,0.8-0.4,1.3-0.6,1.7L45,37.9c-0.2,0.5-0.3,0.9-0.5,1.3c-0.6,1.3-1.5,2.5-2.5,3.7
					C38.9,46.4,35,48.1,30.4,48.1z M45.4,23.5c0.1-0.3,0.2-0.8,0.3-1.5c0.1-0.5,0.6-1.9,0.9-2.3c0.4-0.7,0.8-1,2-1h0.1
					c0.5,0,0.8,0.1,0.9,0.1c0,0,0,0,0,0.1c-0.1,0.1-0.2,0.3-0.6,0.8l-0.5,0.6c-0.2,0.1-0.3,0.2-0.4,0.3c-0.8,0.5-1.4,1-1.9,1.6
					C45.9,22.6,45.6,23.1,45.4,23.5z"/>
				<path class="st11" d="M21,25.5L21,25.5L21,25.5 M19.1,25.6L19.1,25.6L19.1,25.6 M20.7,32.9c1.2,0.6,2.8,1.3,4.6,1.7
					c0.7,0.2,1.5,0.4,2.4,0.7c0.7,0.2,1.4,0.4,2.1,0.6c1.6,0.4,3,1,3.8,1.4c0.5,0.3,1.1,0.4,1.7,0.4c0.2,0,0.4,0,0.6-0.1
					c0.2,0,0.3,0,0.5,0c1.7,0,4.5-0.3,7-1.8c0,0.4-0.1,0.7-0.1,0.9l-0.2,0.4c-0.2,0.4-0.3,0.8-0.5,1.2c-0.5,1.1-1.3,2.2-2.2,3.2
					c-2.7,3-6.1,4.5-10.1,4.5c-1.6,0-3.1-0.3-4.1-0.5c0.8-0.7,1.3-1.8,1.3-2.9c0-0.3,0-0.5-0.1-0.8c0.1-2-1.2-3.7-3.1-4.2
					c-0.5-1.1-1.5-1.9-2.7-2.2c-0.1,0-0.1,0-0.1,0c-0.1,0-0.2-0.1-0.3-0.1c0-0.8-0.2-1.7-0.7-2.3C20.6,33,20.6,32.9,20.7,32.9
					 M48.6,16.8c-1.8,0-2.9,0.6-3.7,2c-0.4,0.6-1,2.2-1.1,2.9c-0.5,2.1-0.4,2.1-0.6,3.3c-0.1,0.8-0.1,1.7-0.1,2.7
					c0,0,0.1,1.6,0.2,3.1c-1.8,2.6-5,3-6.7,3c-0.7,0-1.1-0.1-1.1-0.1v0.1c-1.1-0.6-2.7-1.2-4.5-1.7c-1.5-0.4-3.1-1-4.7-1.4
					c-2.5-0.6-4.8-2-5-2.2c-2.5-1.6-2.7-4.4-2.7-4.4c-0.3-0.2-0.5-0.3-0.7-0.3c-1.1,0-0.7,3.1-0.6,3.1c0,0.2,0.3,1.1,0.8,2
					c0.1,0.2,0.2,0.4,0.3,0.5c-0.2-0.1-0.3-0.3-0.5-0.5c-0.2-0.4-0.5-0.7-0.7-1.1c-1.3-2-1.9-3.7-1.9-3.7s-1.2,3.5,0.7,6.3
					c-2.5-1.8-2.6-2.3-2.6-2.3c0,0.2-0.4,4.6,3.6,6.8h0.1c0,0,0.1,0,0.1,0.1c0,0-0.1,0-0.1-0.1H17l-0.1,0.2c0,0,0.3,3,3.3,4
					c0.1,0,0.3,0.1,0.5,0.1v0.4c0.6,1.2,1.6,1.8,2.7,1.9v0.4c0,0-0.4,0.2,0.1,0.6c-2.7,2-5.9,3.1-5.9,3.1l-0.3,0.1
					c-1.6,0.5-2.7,0.6-3.3,0.6c-0.5,0-0.7-0.1-0.7-0.1c-0.2,0-0.4-0.2-0.6-0.3c0.1,0.1,1.2,1.3,2.8,1.3c0.2,0,0.5,0,0.7-0.1
					c-0.4,0.2-0.8,0.5-1.3,0.7c-0.6,0.3-1.2,0.6-1.8,0.9c-0.2,0.1-1.1,0.5-1,1c0.1,0.3,0.6,0.4,1.1,0.4c0.4,0,0.9-0.1,1.1-0.1
					c0.9-0.1,1.9-0.3,3-0.6v0.1c0,0,0.2,0,0.6,0c0.8,0,2.5-0.1,5-1c0,0,3.2,1.4,7.4,1.4c3.9,0,8.8-1.2,13-5.8
					c1.1-1.3,2.1-2.6,2.8-4.2c0.3-0.6,0.5-1.3,0.8-1.9c0.3-0.7,0.3-1.5,0.4-2.2c0-0.1,0-0.1,0-0.2c0.1-0.7,0.1-1.5,0-2.2
					c-0.1-1-0.2-2-0.4-3c-0.2-1.3-0.3-2.7-0.2-4c0-0.6-0.1-1.1,0.1-1.7c0.1-0.6,0.4-1.1,0.8-1.5c0.4-0.5,0.8-0.8,1.4-1.1
					c0.1-0.1,0.3-0.2,0.4-0.2l0,0c0.2-0.1,0.4-0.2,0.5-0.4c0.2-0.2,0.3-0.4,0.5-0.6c0.7-0.8,1.2-1.5,1.1-2.3c0-0.3-0.1-0.6-0.3-0.8
					c-0.4-0.7-1.1-1.1-2.7-1.1C48.7,16.8,48.6,16.8,48.6,16.8L48.6,16.8z"/>
			</g>
			<g>
				<path class="st12" d="M54.4,18.6c0,0,2.1,0.2,1.8,0.9c-0.1,0.2-0.4,0.3-0.6,0.4c-0.4,0.2-0.9,0.4-1.3,0.5
					c-1.2,0.4-2.5,0.6-3.7,1c-0.4,0.1-0.7,0.3-1.1,0.6l0,0c0.2-0.1,0.4-0.2,0.5-0.4c0.2-0.2,0.3-0.4,0.5-0.6
					c0.7-0.8,1.2-1.5,1.1-2.3c0-0.3-0.1-0.6-0.3-0.8h0.2c0.2,0.2,0.5,0.3,0.7,0.5L54.4,18.6z"/>
				<path class="st11" d="M51.6,17.9h-0.2c0.1,0.2,0.2,0.5,0.3,0.8c0.1,0.8-0.3,1.5-1.1,2.3c-0.2,0.2-0.3,0.4-0.5,0.6
					s-0.3,0.3-0.5,0.4l0,0c0.4-0.2,0.7-0.4,1.1-0.6c1.2-0.5,2.5-0.7,3.7-1c0.5-0.1,0.9-0.3,1.3-0.5c0.2-0.1,0.5-0.2,0.6-0.4
					c0.3-0.7-1.8-0.9-1.8-0.9l-2.1-0.2C52,18.2,51.8,18.1,51.6,17.9L51.6,17.9z"/>
			</g>
			<g>
				<circle class="st13" cx="49.3" cy="18.6" r="0.5"/>
				<path class="st11" d="M49.3,18.1c-0.3,0-0.5,0.2-0.5,0.5s0.2,0.5,0.5,0.5s0.5-0.2,0.5-0.5S49.6,18.1,49.3,18.1L49.3,18.1z"/>
			</g>
			<path class="st10" d="M23.1,47c0,0-2.9,1.6-5.8,2.5c-1,0.3-2.1,0.6-3,0.6c-0.3,0-2,0.2-2.2-0.3c-0.1-0.4,0.8-0.9,1-1
				c0.6-0.3,1.2-0.6,1.8-0.9c0.4-0.2,0.8-0.5,1.3-0.7c-2,0.5-3.5-1.1-3.6-1.2"/>
			<path class="st10" d="M27.8,43.2c0,0,3-1.2,5.5-4c0.1-0.1,0.1-0.1,0.2-0.2"/>
			<path class="st10" d="M44.3,43.3c-0.3,0.4-0.6,0.7-0.9,1c-8.7,9.6-20.5,4.4-20.5,4.4c-3.8,1.3-5.6,0.9-5.6,0.9"/>
			<path class="st10" d="M43.5,44.3c1.1-1.3,2.1-2.6,2.8-4.2c0.3-0.6,0.5-1.3,0.8-1.9c0.3-0.7,0.3-1.5,0.4-2.2c0-0.1,0-0.1,0-0.2
				c0.1-0.7,0.1-1.5,0-2.2c-0.1-1-0.2-2-0.4-3c-0.2-1.3-0.3-2.7-0.2-4c0-0.6-0.1-1.1,0.1-1.7c0.1-0.6,0.4-1.1,0.8-1.5
				c0.4-0.5,0.8-0.8,1.4-1.1c0.1-0.1,0.3-0.2,0.4-0.2c0.4-0.2,0.7-0.4,1.1-0.6c1.2-0.5,2.5-0.7,3.7-1c0.5-0.1,0.9-0.3,1.3-0.5
				c0.2-0.1,0.5-0.2,0.6-0.4c0.3-0.7-1.8-0.9-1.8-0.9l-2.1-0.2c-0.3-0.1-0.5-0.2-0.7-0.5"/>
			<path class="st10" d="M47.3,22.1c0,0,1.3,0.4,2.2-0.1c0.2-0.1,0.4-0.2,0.5-0.4c0.2-0.2,0.3-0.4,0.5-0.6c0.7-0.8,1.2-1.5,1.1-2.3
				c0-0.3-0.1-0.6-0.3-0.8c-0.4-0.7-1.1-1.1-2.7-1.1c-1.8,0-3,0.5-3.8,2c-0.4,0.6-1,2.2-1.1,2.9c-0.5,2.1-0.4,2.1-0.6,3.3
				C43,25.8,43,26.7,43,27.7c0,0,0.1,1.6,0.2,3.1c0,0.2,0,0.5,0,0.7c0.1,1.7-0.4,3-0.4,3"/>
			<path class="st10" d="M35.4,33.7c0,0,5.3,0.7,7.9-2.9"/>
			<path class="st10" d="M37.5,34.9c0,0-0.8-0.5-2.1-1.2c-1.1-0.6-2.7-1.2-4.5-1.7c-1.5-0.4-3.1-1-4.7-1.4c-2.5-0.6-4.8-2-5-2.2
				c-2.5-1.6-2.7-4.4-2.7-4.4c-1.9-1.3-1.3,2.9-1.2,2.9c0,0.2,0.3,1.1,0.8,2c0.1,0.2,0.2,0.4,0.3,0.5"/>
			<path class="st10" d="M23.5,41.6c-1.1-0.1-2.1-0.6-2.8-1.8"/>
			<path class="st10" d="M16.9,35.3c0,0,0.3,3,3.3,4c0.1,0,0.3,0.1,0.5,0.1"/>
			<path class="st10" d="M13.4,28.3c0,0,0.1,0.5,2.6,2.3"/>
			<path class="st10" d="M17,35.1c-4-2.3-3.6-6.7-3.6-6.8l0,0"/>
			<path class="st10" d="M16,30.6c-1.9-2.8-0.7-6.3-0.7-6.3s0.6,1.7,1.9,3.7c0.2,0.4,0.5,0.7,0.7,1.1c0.1,0.2,0.3,0.3,0.5,0.5l0,0
				c0.1,0.1,0.2,0.2,0.3,0.3"/>
			<path class="st10" d="M28.6,46.5c0,0,2.6,1.2,6.1,0.3"/>
			<path class="st10" d="M22.7,33.8c0.4,0.3,1,0.8,1.6,1.2c0.2,0.2,0.5,0.3,0.7,0.5c0.3,0.2,0.7,0.5,1,0.7c0.7,0.5,1.4,0.9,2.1,1.4
				c0.2,0.1,0.4,0.3,0.6,0.4c0.4,0.3,0.8,0.5,1.2,0.8c0.2,0.1,0.3,0.2,0.5,0.4"/>
			<path class="st10" d="M18.4,29.6c0.7,1.1,1.9,2.4,3.7,3.7c0,0,0.2,0.2,0.6,0.4"/>
			<path class="st10" d="M31.1,38.8c0,0-0.2,0.2-0.6,0.4c-1.1,0.7-3.3,1.9-5.4,2.3c-0.5,0.1-1.1,0.1-1.6,0.1"/>
		</g>
		<path class="st14" d="M55.9,33.6l-2.7-0.7c-0.9-9.3-8.3-16.6-17.6-17.4L34.7,12c-0.2-0.6-1-0.6-1.2,0l-1,3.5
			c-9.5,0.7-17.1,8.3-17.9,17.8l-2.3,0.6c-0.8,0.2-0.8,1.4,0,1.6l2.3,0.6c0.7,9.6,8.3,17.3,17.9,18l0.6,2.2c0.2,0.9,1.5,0.9,1.7,0
			l0.6-2.2c9.6-0.7,17.1-8.4,17.8-18l2.7-0.7C56.8,35.1,56.8,33.9,55.9,33.6z"/>
		<g>
			<circle class="st15" cx="33.9" cy="34.7" r="19.4"/>
			<circle class="st16" cx="33.9" cy="34.7" r="19.4"/>
		</g>
		<circle class="st17" cx="33.9" cy="34.7" r="16.7"/>
		<g>
			<path class="st18" d="M33.9,48.2c-7.4,0-13.5-6-13.5-13.5c0-7.4,6-13.5,13.5-13.5c7.4,0,13.5,6,13.5,13.5S41.3,48.2,33.9,48.2z"
				/>
			<path d="M33.9,21.8c7.2,0,13,5.8,13,13s-5.8,13-13,13s-13-5.8-13-13S26.8,21.8,33.9,21.8 M33.9,20.8c-7.7,0-14,6.3-14,14
				s6.3,14,14,14s14-6.3,14-14S41.6,20.8,33.9,20.8L33.9,20.8z"/>
		</g>
		<g>
			<path class="st19" d="M33.9,45.6c-6,0-10.8-4.9-10.8-10.8c0-6,4.9-10.8,10.8-10.8c6,0,10.8,4.9,10.8,10.8S39.9,45.6,33.9,45.6z"
				/>
			<path d="M33.9,24.4c5.7,0,10.3,4.6,10.3,10.3S39.6,45,33.9,45s-10.3-4.6-10.3-10.3S28.2,24.4,33.9,24.4 M33.9,23.4
				c-6.3,0-11.3,5.1-11.3,11.3S27.7,46,33.9,46s11.3-5.1,11.3-11.3S40.2,23.4,33.9,23.4L33.9,23.4z"/>
		</g>
		<path class="st20" d="M33.1,56.3l-4.4-16.4c0-0.1-0.1-0.2-0.3-0.2l-16-4.2c-0.8-0.2-0.8-1.4,0-1.6l16.2-4.5c0.1,0,0.2-0.1,0.2-0.2
			l4.7-17.3c0.2-0.6,1-0.6,1.2,0L39.1,29c0,0.1,0.1,0.2,0.2,0.2l16.6,4.3c0.9,0.2,0.9,1.5,0,1.7l-16.5,4.3c-0.1,0-0.2,0.1-0.3,0.2
			l-4.2,16.4C34.6,57.1,33.4,57.1,33.1,56.3z"/>
		<g>
			<rect x="29.2" y="30" class="st18" width="9.3" height="9.3"/>
			<g>
				<path d="M38,30.5v8.3h-8.3v-8.3H38 M39,29.5H28.7v10.3H39V29.5L39,29.5z"/>
			</g>
		</g>
		<line class="st21" x1="34" y1="56.9" x2="34" y2="38.9"/>
		<line class="st21" x1="11.7" y1="34.7" x2="29.2" y2="34.7"/>
		<line class="st21" x1="38.6" y1="34.4" x2="56.8" y2="34.4"/>
		<g>
			<path class="st22" d="M23.6,22.5L46.9,45c-0.3,0.9-1.4,3.8-5.1,4.2L23.6,22.5z"/>
			<path d="M26.8,26.3l19.6,18.9c-0.4,1.1-1.5,3.1-4.3,3.5L26.8,26.3 M22.1,20.4c-0.2,0-0.3,0.2-0.2,0.4l19.6,28.7
				c0,0.1,0.1,0.1,0.2,0.1l0,0c4.4-0.4,5.5-3.9,5.7-4.7c0-0.1,0-0.2-0.1-0.2l-25-24.2C22.2,20.5,22.2,20.4,22.1,20.4L22.1,20.4z"/>
		</g>
		<rect x="11.5" y="13.1" class="st23" width="45.2" height="34.6"/>
		<path class="st24" d="M29.6,11.4"/>
		<line class="st21" x1="34.1" y1="11.1" x2="34.1" y2="30.2"/>
		
			<use xlink:href="#New_Symbol_1"  width="154.8" height="118" x="-77.4" y="-59" transform="matrix(0.2929 0 0 -0.2929 34.2044 33.5009)" style="overflow:visible;"/>
	</g>
	<g id="Layer_4">
	</g>
	<text transform="matrix(1 0 0 1 22.3314 77.3678)" class="st1 st25 st26">Conti</text>
	<text transform="matrix(1 0 0 1 7.9711 88.393)" class="st1 st25 st26">Cartography</text>
	<g>
		<text transform="matrix(1 0 0 1 32.0124 3.8031)" class="st1 st25 st27">N</text>
		<text transform="matrix(1 0 0 1 32.5778 67.301)" class="st1 st25 st27">S</text>
		<text transform="matrix(1 0 0 1 62.4049 35.5867)" class="st1 st25 st27">E</text>
		<text transform="matrix(1 0 0 1 1.1394 35.5865)" class="st1 st25 st27">W</text>
	</g>
	<g>
		<defs>
			<path id="SVGID_00000098905008582335099720000015254816995306059954_" d="M4.9,19.6C5.6,18,6.2,15.8,8,15.2
				c0.8-0.3,1.8-0.6,2.3,0.3c0.4,0.7,0.2,2.1,0,2.9c-0.4,2.1-4,12.6-7,9.3C1.4,25.5,2.7,21.3,4.9,19.6z M14.9,7.9
				c-0.9,0.9-1.2,2-0.2,3c0.9,0.9,1.3,0.3,2.2-0.2c2-1.3,4.2-1.5,6.4-2.3c1.6-0.6,4.6-1.3,5.5-3c1.1-2.4-2.9-2.2-4.2-1.8
				C20.5,5.2,17.4,5.4,14.9,7.9z M44.4,8c1.9,1.8,4.2,2.8,6.8,3.3c1.2,0.2,3.3,0.6,3.1-1.1c-0.1-1.1-1-2.1-1.9-2.8
				c-1.4-1.2-3-2.2-4.8-2.7c-1.8-0.5-3.6-1.3-5.5-1.5c-0.8-0.1-1.9,0.1-2,1.1C40,5,40.8,5.7,41.2,6.2C42.8,6.5,43.5,7.2,44.4,8z
				 M58.5,19.9c0.6,1.7,0.3,3.5,1.3,5.1c1.3,2.1,4.1,3.4,5.1,0.6c0.7-1.8-0.3-4.1-1.1-5.7c-1-2-2.3-4.5-4.5-5.4
				c-0.6-0.2-2-0.6-2.5-0.1c-0.5,0.5,0.1,1.7,0.3,2.2C57.3,18.1,58.2,18.9,58.5,19.9z M58.7,45.7c-1.5,1.9-3.4,5-2.3,7.5
				c1.7,3.9,7-5.7,7.6-7c0.7-1.4,1.6-3,1.3-4.7c-0.5-2.5-3.6-1.7-3.6,0.6C60.9,43.9,59.4,44.7,58.7,45.7z M41.9,62
				c-1.6,1.2-2.4,3.2,0.2,3.3c1.5,0.1,2.9-0.5,4.3-1c1.8-0.6,3.7-1.2,5.2-2.4c1.4-1.1,3-2.7,2.1-4.6c-0.7-1.4-2.5-0.9-3,0.4
				C47.5,59.6,44.4,60.2,41.9,62z M26.1,64.9c1,0,1.5-0.8,1.6-1.6c0.2-1.2-0.4-1.5-1.3-2.1c-1.7-1-3.6-1.4-5.4-2.1
				c-1.5-0.6-2.9-1.4-4.5-1.8c-1-0.2-1.7-0.8-2.2,0.2c-0.7,1.3,0,2.8,1,3.7c1.9,1.7,5,1.8,7.2,2.8c0.4,0.2,0.8,0.5,1.2,0.5
				C24.3,64.7,24.8,64.6,26.1,64.9z M8,53.2c1.3,1.9,2.5-0.5,2.7-1.8c0.2-2-1.2-3.5-2-5.2c-0.6-1.5-1-3-2.1-4.2
				c-0.3-0.4-1.3-1.5-1.9-1.6C3.1,40.2,2.9,44,3,45.1C3.3,48.3,5.9,50.4,8,53.2z"/>
		</defs>
		<clipPath id="SVGID_00000029727176502925892080000002325975347200741794_">
			<use xlink:href="#SVGID_00000098905008582335099720000015254816995306059954_"  style="overflow:visible;"/>
		</clipPath>
		<g style="clip-path:url(#SVGID_00000029727176502925892080000002325975347200741794_);">
			<g>
				<g>
					<g>
						<path class="st29" d="M33.9,64.5C33.9,64.5,33.9,64.5,33.9,64.5"/>
						<path class="st30" d="M37.8,64.2c14.3-1.8,25.4-13.6,26.3-28.1"/>
						<path class="st29" d="M64.3,34.1C64.3,34.1,64.3,34.1,64.3,34.1"/>
					</g>
				</g>
				<g>
					<g>
						<path class="st29" d="M3.6,34.1C3.6,34.1,3.6,34.1,3.6,34.1"/>
						<path class="st30" d="M3.8,38c1.8,14.3,13.6,25.4,28.1,26.3"/>
						<path class="st29" d="M33.9,64.5C33.9,64.5,33.9,64.5,33.9,64.5"/>
					</g>
				</g>
				<g>
					<g>
						<path class="st29" d="M33.9,3.8C33.9,3.8,33.9,3.8,33.9,3.8"/>
						<path class="st30" d="M30,4C15.7,5.9,4.6,17.6,3.6,32.1"/>
						<path class="st29" d="M3.6,34.1C3.6,34.1,3.6,34.1,3.6,34.1"/>
					</g>
				</g>
				<g>
					<g>
						<path class="st29" d="M64.3,34.1C64.3,34.1,64.3,34.1,64.3,34.1"/>
						<path class="st30" d="M64,30.2C62.2,15.9,50.4,4.8,35.9,3.8"/>
						<path class="st29" d="M33.9,3.8C33.9,3.8,33.9,3.8,33.9,3.8"/>
					</g>
				</g>
			</g>
		</g>
	</g>
</g>
<g id="Layer_2">
</g>
</svg>
