<?xml version="1.0" encoding="utf-8"?>
<!-- Generator: Adobe Illustrator 25.4.1, SVG Export Plug-In . SVG Version: 6.00 Build 0)  -->
<svg version="1.1" xmlns="http://www.w3.org/2000/svg" xmlns:xlink="http://www.w3.org/1999/xlink" x="0px" y="0px"
	 viewBox="0 0 66.8 66.5" style="enable-background:new 0 0 66.8 66.5;" xml:space="preserve">
<style type="text/css">
	.st0{fill:none;stroke:#FFFFFF;stroke-width:4;stroke-linecap:round;stroke-linejoin:round;stroke-miterlimit:10;}
	.st1{fill:#FFFFFF;stroke:#000000;stroke-width:3;stroke-linecap:round;stroke-linejoin:round;stroke-miterlimit:10;}
	.st2{fill:#EFA153;stroke:#000000;stroke-width:4;stroke-linecap:round;stroke-linejoin:round;stroke-miterlimit:10;}
	.st3{fill:#010101;}
	.st4{fill:none;stroke:#000000;stroke-width:4;stroke-linecap:round;stroke-linejoin:round;stroke-miterlimit:10;}
	.st5{fill:none;stroke:#000000;stroke-width:3;stroke-linecap:round;stroke-linejoin:round;stroke-miterlimit:10;}
	.st6{fill:none;stroke:#FFFFFF;stroke-width:2;stroke-linecap:round;stroke-linejoin:round;stroke-miterlimit:10;}
	.st7{display:none;fill:#333333;}
	.st8{fill:#333333;}
	.st9{fill:none;stroke:#DBD1C8;stroke-width:4;stroke-linecap:round;stroke-linejoin:round;stroke-miterlimit:10;}
	.st10{fill:#FFFFFF;}
	.st11{fill:#DBD1C8;}
	.st12{fill:#EFA153;}
	.st13{stroke:#DBD1C8;stroke-width:5;stroke-miterlimit:10;}
	.st14{fill:#F9E3C7;}
	.st15{fill:none;stroke:#000000;stroke-linecap:round;stroke-linejoin:round;stroke-miterlimit:10;}
	.st16{fill:none;stroke:#665D52;stroke-linecap:round;stroke-linejoin:round;stroke-miterlimit:10;stroke-dasharray:0,1.75;}
	.st17{fill:#898989;}
	.st18{fill:#9B8C79;}
	.st19{fill:#665D52;stroke:#000000;stroke-miterlimit:10;}
	.st20{fill:#494949;stroke:#000000;stroke-miterlimit:10;}
	.st21{fill:#494949;}
	.st22{fill:#EFEAE4;stroke:#333333;stroke-width:0.75;stroke-linecap:round;stroke-linejoin:round;stroke-miterlimit:10;}
</style>
<symbol  id="New_Symbol_00000044876285098442181340000015591834923753713034_" viewBox="-78.1 -59.7 156.3 119.4">
	<path class="st0" d="M-46.5-20.3c6.1-1.4,14.9-0.7,27.8,4.7"/>
	<path class="st0" d="M-28.1-9.4c-14.8-2-24.7,0.1-31.1,3.8"/>
	<path class="st0" d="M-39.7-1L-39.7-1c-12.7,1.2-19.6,5.7-23.2,11l0,0"/>
	<path class="st1" d="M-57.2-42.3l-1-0.3c-9.2-3-14-2-14-2c-0.8,0.1-1.4,0.5-2,0.9c0.3-0.3,5.4-5.7,12.3-4.1
		c-1.5-0.7-2.9-1.7-4.4-2.3c-2.2-0.9-4.2-1.9-6.3-3.1c-0.7-0.4-3.9-1.9-3.6-3.3c0.5-1.9,6.4-1.1,7.5-1.1c3.1,0.2,6.7,1,10.3,2.2
		l0.1-0.4c0,0,6.5-1.1,19.5,3.3c0,0,40.6-17.9,70.7,15.3c3.9,4.3,7.3,9.1,9.8,14.4c1.1,2.1,1.8,4.3,2.7,6.5c1,2.5,1.2,5,1.4,7.7
		c0,0.2,0,0.5,0.1,0.7c0.2,2.5,0.3,5,0.1,7.5c-0.2,3.4-0.8,6.8-1.3,10.2c-0.6,4.6-1,9.2-0.8,13.8c0.1,2-0.2,3.8,0.3,5.8
		c0.5,1.9,1.4,3.7,2.6,5.3c1.3,1.6,2.9,2.8,4.7,3.9c0.5,0.3,1,0.6,1.4,0.9l-0.1,0.2c0.6,0.3,1.3,0.8,1.8,1.4
		c0.6,0.7,1.2,1.3,1.7,1.9c2.5,2.8,4.2,5.1,3.7,8c-0.2,1.1-0.4,2-0.9,2.8c-1.3,2.4-3.9,3.8-9.2,3.8c-6.4,0.1-10.3-1.8-13.2-6.8
		c-1.3-2.2-3.3-7.5-3.9-9.9c-1.6-7.1-1.5-7.3-2-11.3c-0.3-2.8-0.5-5.9-0.5-9.3c0,0,0.3-5.4,0.6-10.8C22.4-3,4.1-0.5,4.1-0.5L4-0.8
		C0,1.1-5.4,3.3-11.7,5C-17,6.4-22.4,8.5-27.8,9.7c-8.6,1.9-16.7,7-17.3,7.4c-8.8,5.5-9.3,15.1-9.3,15.1c-6.7,4.6-4.6-9.9-4.2-9.9
		c0-0.6,0.9-3.7,2.8-7.1c0.3-0.6,0.7-1.2,1.2-1.9c-0.6,0.5-1.2,1-1.6,1.7c-0.8,1.4-1.7,2.3-2.5,3.7c-4.3,7-6.5,12.9-6.5,12.9
		s-4.2-12.1,2.4-21.7c-8.6,6.3-8.8,7.9-8.8,8C-71.8,17.4-73,2.2-59.2-5.6c0.2-0.1,0.4-0.2,0.7-0.4l0,0c-0.2,0.1-0.4,0.2-0.7,0.4
		l-0.3-0.6c0,0,1-10.3,11.5-13.6c0.5-0.2,1-0.3,1.6-0.4l0-1.2c2.1-4.2,5.6-6.1,9.5-6.4l-0.1-1.5c0,0-1.4-0.8,0.3-2.1
		C-45.9-38.3-57.2-42.3-57.2-42.3z"/>
	<path class="st2" d="M69.8,51.6c0,0,7.3-0.8,6.2-3.3c-0.3-0.7-1.3-1.2-2-1.5c-1.5-0.8-3-1.3-4.6-1.8c-4.2-1.3-8.6-2-12.6-3.6
		c-1.3-0.5-2.5-1.2-3.8-1.9l-0.1,0.2c0.6,0.3,1.3,0.8,1.8,1.4c0.6,0.7,1.2,1.3,1.7,1.9c2.5,2.8,4.2,5.1,3.7,8
		c-0.2,1.1-0.4,2-0.9,2.8L60,54c0.8-0.7,1.6-1.1,2.5-1.6L69.8,51.6z"/>
	<circle class="st3" cx="52.3" cy="51.5" r="1.9"/>
	<path class="st4" d="M-38.2-46.7c0,0-10-5.5-20.1-8.7c-3.6-1.1-7.2-2-10.3-2.2c-1.2-0.1-7-0.9-7.5,1.1c-0.4,1.4,2.9,3,3.6,3.3
		c2.1,1.1,4.1,2.2,6.3,3.1c1.5,0.6,2.9,1.6,4.4,2.3c-6.9-1.6-12,3.8-12.3,4.1"/>
	<path class="st4" d="M-22.1-33.5c0,0,10.5,4.2,18.9,13.8c0.2,0.2,0.4,0.5,0.6,0.7"/>
	<path class="st4" d="M35-33.6c-1-1.2-2-2.4-3-3.5C1.9-70.4-38.7-52.4-38.7-52.4c-13-4.4-19.5-3.3-19.5-3.3"/>
	<path class="st4" d="M32-37.2c3.9,4.3,7.3,9.1,9.8,14.4c1.1,2.1,1.8,4.3,2.7,6.5c1,2.5,1.2,5,1.4,7.7c0,0.2,0,0.5,0.1,0.7
		c0.2,2.5,0.3,5,0.1,7.5c-0.2,3.4-0.8,6.8-1.3,10.2c-0.6,4.6-1,9.2-0.8,13.8c0.1,2-0.2,3.8,0.3,5.8c0.5,1.9,1.4,3.7,2.6,5.3
		c1.3,1.6,2.9,2.8,4.7,3.9c0.5,0.3,1,0.6,1.4,0.9c1.2,0.7,2.4,1.4,3.8,1.9c4.1,1.6,8.5,2.3,12.6,3.6c1.6,0.5,3.1,1.1,4.6,1.8
		c0.7,0.3,1.6,0.8,2,1.5c1.1,2.5-6.2,3.3-6.2,3.3l-7.3,0.8c-0.9,0.4-1.7,0.8-2.5,1.6"/>
	<path class="st4" d="M45.2,39.3c0,0,4.3-1.4,7.7,0.4c0.6,0.3,1.3,0.8,1.8,1.4c0.6,0.7,1.2,1.3,1.7,1.9c2.5,2.8,4.2,5.1,3.7,8
		c-0.2,1.1-0.4,2-0.9,2.8c-1.3,2.4-3.9,3.8-9.2,3.8c-6.4,0.1-10.3-1.8-13.2-6.8c-1.3-2.2-3.3-7.5-3.9-9.9c-1.6-7.1-1.5-7.3-2-11.3
		c-0.3-2.8-0.5-5.9-0.5-9.3c0,0,0.3-5.4,0.6-10.8c0-0.8,0.1-1.6,0.1-2.4C31.8,1.2,30-3,30-3"/>
	<path class="st5" d="M4.1-0.5c0,0,18.2-2.5,27.2,10"/>
	<path class="st4" d="M11.3-4.9c0,0-2.7,1.8-7.4,4.1C0,1.1-5.4,3.3-11.7,5C-17,6.4-22.4,8.5-27.8,9.7c-8.6,1.9-16.7,7-17.3,7.4
		c-8.8,5.5-9.3,15.1-9.3,15.1c-6.7,4.6-4.6-9.9-4.2-9.9c0-0.6,0.9-3.7,2.8-7.1c0.3-0.6,0.7-1.2,1.2-1.9"/>
	<path class="st4" d="M-37-28c-3.9,0.4-7.4,2.2-9.5,6.4"/>
	<path class="st4" d="M-59.6-6.2c0,0,1-10.3,11.5-13.6c0.5-0.2,1-0.3,1.6-0.4"/>
	<path class="st4" d="M-71.7,18c0-0.1,0.3-1.7,8.8-8"/>
	<path class="st4" d="M-59.2-5.6C-73,2.2-71.8,17.4-71.7,18c0,0,0,0,0,0"/>
	<path class="st4" d="M-62.9,10c-6.6,9.6-2.4,21.7-2.4,21.7s2.1-5.9,6.5-12.9c0.8-1.3,1.7-2.3,2.5-3.7c0.4-0.7,1-1.2,1.6-1.7
		c0,0,0,0,0,0c0.4-0.3,0.7-0.6,0.9-1"/>
	<path class="st4" d="M-19.2-45c0,0,8.9-4.1,21.1-1.1"/>
	<path class="st4" d="M-39.7-1c1.5-1.1,3.6-2.6,5.5-4.1c0.8-0.6,1.6-1.2,2.5-1.8c1.1-0.8,2.3-1.6,3.6-2.5c2.3-1.6,4.8-3.2,7.3-4.8
		c0.7-0.5,1.4-0.9,2.1-1.4c1.4-0.9,2.7-1.8,4.1-2.7c0.6-0.4,1.2-0.8,1.8-1.2"/>
	<path class="st4" d="M-54.7,13.4c2.6-3.9,6.6-8.3,12.9-12.9c0,0,0.8-0.6,2-1.5"/>
	<path class="st4" d="M-10.5-18.2c0,0-0.8-0.6-2.2-1.5c-3.7-2.3-11.4-6.7-18.7-8c-1.9-0.3-3.8-0.5-5.5-0.3"/>
</symbol>
<g id="New_Symbol_00000069375921941586325320000009336810126453050289_">
	<path class="st6" d="M20,37.5c1.7,0.4,4.2,0.2,7.9-1.3 M25.2,34.4c-4.2,0.6-7,0-8.9-1.1 M21.9,32L21.9,32c-3.6-0.4-5.6-1.6-6.6-3.1
		l0,0 M17,43.7l-0.3,0.1c-2.6,0.9-4,0.6-4,0.6c-0.2,0-0.4-0.2-0.6-0.3c0.1,0.1,1.5,1.6,3.5,1.2c-0.4,0.2-0.8,0.5-1.3,0.6
		c-0.6,0.3-1.2,0.6-1.8,0.9c-0.2,0.1-1.1,0.5-1,1c0.1,0.6,1.8,0.3,2.2,0.3c0.9-0.1,1.9-0.3,2.9-0.6l0,0.1c0,0,1.8,0.3,5.6-0.9
		c0,0,11.6,5.1,20.2-4.4c1.1-1.2,2.1-2.6,2.8-4.1c0.3-0.6,0.5-1.2,0.8-1.9c0.3-0.7,0.3-1.4,0.4-2.2c0-0.1,0-0.1,0-0.2
		c0.1-0.7,0.1-1.4,0-2.1c-0.1-1-0.2-1.9-0.4-2.9c-0.2-1.3-0.3-2.6-0.2-3.9c0-0.6-0.1-1.1,0.1-1.6c0.1-0.6,0.4-1.1,0.8-1.5
		c0.4-0.5,0.8-0.8,1.3-1.1c0.1-0.1,0.3-0.2,0.4-0.2l0,0c0.2-0.1,0.4-0.2,0.5-0.4c0.2-0.2,0.3-0.4,0.5-0.6c0.7-0.8,1.2-1.5,1.1-2.3
		c0-0.3-0.1-0.6-0.2-0.8c-0.4-0.7-1.1-1.1-2.6-1.1c-1.8,0-2.9,0.5-3.8,1.9c-0.4,0.6-0.9,2.1-1.1,2.8c-0.5,2-0.4,2.1-0.6,3.2
		C42,24,42,24.9,42,25.9c0,0,0.1,1.6,0.2,3.1c-2.5,3.6-7.7,2.9-7.7,2.9l0,0.1c-1.1-0.5-2.7-1.2-4.5-1.7c-1.5-0.4-3.1-1-4.6-1.3
		c-2.4-0.5-4.8-2-4.9-2.1c-2.5-1.6-2.7-4.3-2.7-4.3c-1.9-1.3-1.3,2.8-1.2,2.8c0,0.2,0.2,1.1,0.8,2c0.1,0.2,0.2,0.4,0.3,0.5
		c-0.2-0.1-0.3-0.3-0.5-0.5c-0.2-0.4-0.5-0.7-0.7-1c-1.2-2-1.8-3.7-1.8-3.7s-1.2,3.5,0.7,6.2c-2.4-1.8-2.5-2.3-2.5-2.3
		c0,0.2-0.3,4.5,3.6,6.7c0.1,0,0.1,0.1,0.2,0.1l0,0c-0.1,0-0.1-0.1-0.2-0.1l-0.1,0.2c0,0,0.3,2.9,3.3,3.9c0.1,0,0.3,0.1,0.4,0.1
		l0,0.4c0.6,1.2,1.6,1.7,2.7,1.8l0,0.4c0,0-0.4,0.2,0.1,0.6C20.2,42.6,17,43.7,17,43.7z M53.2,17c0,0,2.1,0.2,1.8,0.9
		c-0.1,0.2-0.4,0.3-0.6,0.4c-0.4,0.2-0.9,0.4-1.3,0.5c-1.2,0.4-2.4,0.6-3.6,1c-0.4,0.1-0.7,0.3-1.1,0.5l0,0c0.2-0.1,0.4-0.2,0.5-0.4
		c0.2-0.2,0.3-0.4,0.5-0.6c0.7-0.8,1.2-1.5,1.1-2.3c0-0.3-0.1-0.6-0.2-0.8l0.2,0c0.2,0.2,0.4,0.3,0.7,0.4L53.2,17z M48.2,17.5
		c0.3,0,0.5-0.2,0.5-0.5s-0.2-0.5-0.5-0.5c-0.3,0-0.5,0.2-0.5,0.5S47.9,17.5,48.2,17.5z M22.4,45c0,0-2.9,1.6-5.7,2.5
		c-1,0.3-2.1,0.6-2.9,0.6c-0.3,0-2,0.2-2.2-0.3c-0.1-0.4,0.8-0.8,1-1c0.6-0.3,1.2-0.6,1.8-0.9c0.4-0.2,0.8-0.5,1.3-0.6
		c-2,0.5-3.4-1.1-3.5-1.2 M26.9,41.2c0,0,3-1.2,5.4-3.9c0.1-0.1,0.1-0.1,0.2-0.2 M43.2,41.3c-0.3,0.4-0.6,0.7-0.9,1
		c-8.6,9.5-20.2,4.4-20.2,4.4c-3.7,1.3-5.6,0.9-5.6,0.9 M42.4,42.3c1.1-1.2,2.1-2.6,2.8-4.1c0.3-0.6,0.5-1.2,0.8-1.9
		c0.3-0.7,0.3-1.4,0.4-2.2c0-0.1,0-0.1,0-0.2c0.1-0.7,0.1-1.4,0-2.1c-0.1-1-0.2-1.9-0.4-2.9c-0.2-1.3-0.3-2.6-0.2-3.9
		c0-0.6-0.1-1.1,0.1-1.6c0.1-0.6,0.4-1.1,0.8-1.5c0.4-0.5,0.8-0.8,1.3-1.1c0.1-0.1,0.3-0.2,0.4-0.2c0.3-0.2,0.7-0.4,1.1-0.5
		c1.2-0.5,2.4-0.6,3.6-1c0.5-0.1,0.9-0.3,1.3-0.5c0.2-0.1,0.5-0.2,0.6-0.4c0.3-0.7-1.8-0.9-1.8-0.9l-2.1-0.2
		c-0.3-0.1-0.5-0.2-0.7-0.4 M46.1,20.5c0,0,1.2,0.4,2.2-0.1c0.2-0.1,0.4-0.2,0.5-0.4c0.2-0.2,0.3-0.4,0.5-0.6
		c0.7-0.8,1.2-1.5,1.1-2.3c0-0.3-0.1-0.6-0.2-0.8c-0.4-0.7-1.1-1.1-2.6-1.1c-1.8,0-2.9,0.5-3.8,1.9c-0.4,0.6-0.9,2.1-1.1,2.8
		c-0.5,2-0.4,2.1-0.6,3.2C42,24,42,24.9,42,25.9c0,0,0.1,1.6,0.2,3.1c0,0.2,0,0.5,0,0.7c0.1,1.7-0.4,2.9-0.4,2.9 M34.4,31.8
		c0,0,5.2,0.7,7.7-2.9 M36.5,33.1c0,0-0.8-0.5-2.1-1.2c-1.1-0.5-2.7-1.2-4.5-1.7c-1.5-0.4-3.1-1-4.6-1.3c-2.4-0.5-4.8-2-4.9-2.1
		c-2.5-1.6-2.7-4.3-2.7-4.3c-1.9-1.3-1.3,2.8-1.2,2.8c0,0.2,0.2,1.1,0.8,2c0.1,0.2,0.2,0.4,0.3,0.5 M22.7,39.7
		c-1.1-0.1-2.1-0.6-2.7-1.8 M16.3,33.5c0,0,0.3,2.9,3.3,3.9c0.1,0,0.3,0.1,0.4,0.1 M12.8,26.6c0,0,0.1,0.5,2.5,2.3 M16.4,33.3
		c-3.9-2.2-3.6-6.6-3.6-6.7c0,0,0,0,0,0 M15.3,28.8c-1.9-2.7-0.7-6.2-0.7-6.2s0.6,1.7,1.8,3.7c0.2,0.4,0.5,0.7,0.7,1
		c0.1,0.2,0.3,0.3,0.5,0.5c0,0,0,0,0,0c0.1,0.1,0.2,0.2,0.3,0.3 M27.8,44.5c0,0,2.5,1.2,6,0.3 M21.9,32c0.4,0.3,1,0.7,1.6,1.2
		c0.2,0.2,0.5,0.3,0.7,0.5c0.3,0.2,0.7,0.5,1,0.7c0.7,0.4,1.4,0.9,2.1,1.4c0.2,0.1,0.4,0.3,0.6,0.4c0.4,0.3,0.8,0.5,1.2,0.8
		c0.2,0.1,0.3,0.2,0.5,0.3 M17.7,27.9c0.7,1.1,1.9,2.4,3.7,3.7c0,0,0.2,0.2,0.6,0.4 M30.3,36.9c0,0-0.2,0.2-0.6,0.4
		c-1.1,0.7-3.2,1.9-5.3,2.3c-0.5,0.1-1.1,0.1-1.6,0.1"/>
	<path class="st7" d="M37.6,6.9L37.6,6.9H6.9v30.7v1.2v30.7h30.7h0c17,0,30.7-13.8,30.7-30.7v-1.2V6.9H37.6z"/>
	<g>
		<circle class="st8" cx="33.5" cy="33.2" r="33.3"/>
	</g>
</g>
<g id="Layer_1">
	<g id="New_Symbol_00000067203307216639356510000011862188654588038303_">
		<path class="st9" d="M20.3,37.9c1.8,0.4,4.3,0.2,8-1.4"/>
		<path class="st9" d="M25.7,34.7c-4.3,0.6-7.1,0-9-1.1"/>
		<path class="st9" d="M22.3,32.3L22.3,32.3c-3.7-0.4-5.7-1.7-6.7-3.2l0,0"/>
		<g>
			<path class="st10" d="M30,46.6c-3.8,0-6.6-1.2-6.6-1.2c-0.3-0.1-0.5-0.2-0.8-0.2c-0.2,0-0.4,0-0.6,0.1c-2,0.7-3.4,0.8-4.1,0.9
				c0,0,0,0,0,0l0,0c0.2-0.1,3.6-1.3,6.5-3.4c0.5-0.4,0.8-1,0.8-1.6c0-0.2,0-0.4-0.1-0.6l0-0.3c0.1-1.1-0.7-2-1.8-2.1
				c-0.4,0-0.7-0.2-1-0.5c-0.1-0.8-0.7-1.5-1.5-1.7c-0.1,0-0.2-0.1-0.3-0.1c-1-0.3-1.5-1-1.7-1.6c0.3-0.9-0.1-1.8-1-2.3
				c0,0-0.1-0.1-0.1-0.1c-0.5-0.3-0.9-0.6-1.2-1c0.2-0.1,0.4-0.2,0.6-0.4c0.2-0.2,0.3-0.4,0.4-0.6c0.2,0.1,0.4,0.1,0.6,0.1
				c0.5,0,0.9-0.2,1.3-0.5c0.2-0.2,0.4-0.5,0.5-0.8c0.6,0.4,2.9,1.8,5.5,2.3c0.8,0.2,1.7,0.4,2.6,0.7c0.7,0.2,1.4,0.4,2,0.6
				c1.4,0.4,2.8,0.9,4.2,1.6c0.3,0.1,0.6,0.2,0.9,0.2c0.2,0,0.3,0,0.5-0.1c0.2,0,0.4,0,0.7,0c2.1,0,6-0.5,8.4-3.8
				c0.2-0.2,0.3-0.5,0.3-0.8l0.1,0.5c0.1,0.8,0.2,1.5,0.3,2.2c0,0.6,0,1.3,0,1.9l0,0.3C45,35.1,45,35.6,44.8,36l-0.2,0.4
				c-0.2,0.5-0.3,0.9-0.5,1.3c-0.6,1.3-1.5,2.5-2.5,3.7C38.5,44.9,34.6,46.6,30,46.6z M45,22c0.1-0.3,0.2-0.8,0.3-1.5
				c0.1-0.5,0.6-1.9,0.9-2.3c0.4-0.7,0.8-1,2-1l0.1,0c0.5,0,0.8,0.1,0.9,0.1c0,0,0,0,0,0.1c-0.1,0.1-0.2,0.3-0.6,0.8l-0.5,0.6
				c-0.2,0.1-0.3,0.2-0.4,0.3c-0.8,0.5-1.4,1-1.9,1.6C45.5,21.1,45.2,21.6,45,22z"/>
			<path class="st11" d="M20.6,24L20.6,24L20.6,24 M18.7,24.1L18.7,24.1L18.7,24.1 M20.3,31.4c1.2,0.6,2.8,1.3,4.6,1.7
				c0.7,0.2,1.5,0.4,2.4,0.7c0.7,0.2,1.4,0.4,2.1,0.6c1.6,0.4,3,1,3.8,1.4c0.5,0.3,1.1,0.4,1.7,0.4c0.2,0,0.4,0,0.6-0.1
				c0.2,0,0.3,0,0.5,0c1.7,0,4.5-0.3,7-1.8c0,0.4-0.1,0.7-0.1,0.9l-0.2,0.4c-0.2,0.4-0.3,0.8-0.5,1.2c-0.5,1.1-1.3,2.2-2.2,3.2
				c-2.7,3-6.1,4.5-10.1,4.5c-1.6,0-3.1-0.3-4.1-0.5c0.8-0.7,1.3-1.8,1.3-2.9c0-0.3,0-0.5-0.1-0.8c0.1-2-1.2-3.7-3.1-4.2
				c-0.5-1.1-1.5-1.9-2.7-2.2c-0.1,0-0.1,0-0.1,0c-0.1,0-0.2-0.1-0.3-0.1c0-0.8-0.2-1.7-0.7-2.3C20.2,31.5,20.2,31.4,20.3,31.4
				 M48.2,15.3c-1.8,0-2.9,0.6-3.7,2c-0.4,0.6-1,2.2-1.1,2.9c-0.5,2.1-0.4,2.1-0.6,3.3c-0.1,0.8-0.1,1.7-0.1,2.7
				c0,0,0.1,1.6,0.2,3.1c-1.8,2.6-5,3-6.7,3c-0.7,0-1.1-0.1-1.1-0.1l0,0.1c-1.1-0.6-2.7-1.2-4.5-1.7c-1.5-0.4-3.1-1-4.7-1.4
				c-2.5-0.6-4.8-2-5-2.2c-2.5-1.6-2.7-4.4-2.7-4.4c-0.3-0.2-0.5-0.3-0.7-0.3c-1.1,0-0.7,3.1-0.6,3.1c0,0.2,0.3,1.1,0.8,2
				c0.1,0.2,0.2,0.4,0.3,0.5c-0.2-0.1-0.3-0.3-0.5-0.5c-0.2-0.4-0.5-0.7-0.7-1.1c-1.3-2-1.9-3.7-1.9-3.7s-1.2,3.5,0.7,6.3
				c-2.5-1.8-2.6-2.3-2.6-2.3c0,0.2-0.4,4.6,3.6,6.8c0,0,0.1,0,0.1,0c0,0,0.1,0,0.1,0.1c0,0-0.1,0-0.1-0.1c0,0-0.1,0-0.1,0l-0.1,0.2
				c0,0,0.3,3,3.3,4c0.1,0,0.3,0.1,0.5,0.1l0,0.4c0.6,1.2,1.6,1.8,2.7,1.9l0,0.4c0,0-0.4,0.2,0.1,0.6c-2.7,2-5.9,3.1-5.9,3.1
				l-0.3,0.1c-1.6,0.5-2.7,0.6-3.3,0.6c-0.5,0-0.7-0.1-0.7-0.1c-0.2,0-0.4-0.2-0.6-0.3c0.1,0.1,1.2,1.3,2.8,1.3c0.2,0,0.5,0,0.7-0.1
				c-0.4,0.2-0.8,0.5-1.3,0.7c-0.6,0.3-1.2,0.6-1.8,0.9c-0.2,0.1-1.1,0.5-1,1c0.1,0.3,0.6,0.4,1.1,0.4c0.4,0,0.9-0.1,1.1-0.1
				c0.9-0.1,1.9-0.3,3-0.6l0,0.1c0,0,0.2,0,0.6,0c0.8,0,2.5-0.1,5-1c0,0,3.2,1.4,7.4,1.4c3.9,0,8.8-1.2,13-5.8
				c1.1-1.3,2.1-2.6,2.8-4.2c0.3-0.6,0.5-1.3,0.8-1.9c0.3-0.7,0.3-1.5,0.4-2.2c0-0.1,0-0.1,0-0.2c0.1-0.7,0.1-1.5,0-2.2
				c-0.1-1-0.2-2-0.4-3c-0.2-1.3-0.3-2.7-0.2-4c0-0.6-0.1-1.1,0.1-1.7c0.1-0.6,0.4-1.1,0.8-1.5c0.4-0.5,0.8-0.8,1.4-1.1
				c0.1-0.1,0.3-0.2,0.4-0.2l0,0c0.2-0.1,0.4-0.2,0.5-0.4c0.2-0.2,0.3-0.4,0.5-0.6c0.7-0.8,1.2-1.5,1.1-2.3c0-0.3-0.1-0.6-0.3-0.8
				c-0.4-0.7-1.1-1.1-2.7-1.1C48.3,15.3,48.2,15.3,48.2,15.3L48.2,15.3z"/>
		</g>
		<g>
			<path class="st12" d="M54,17.1c0,0,2.1,0.2,1.8,0.9c-0.1,0.2-0.4,0.3-0.6,0.4c-0.4,0.2-0.9,0.4-1.3,0.5c-1.2,0.4-2.5,0.6-3.7,1
				c-0.4,0.1-0.7,0.3-1.1,0.6l0,0c0.2-0.1,0.4-0.2,0.5-0.4c0.2-0.2,0.3-0.4,0.5-0.6c0.7-0.8,1.2-1.5,1.1-2.3c0-0.3-0.1-0.6-0.3-0.8
				l0.2,0c0.2,0.2,0.5,0.3,0.7,0.5L54,17.1z"/>
			<path class="st11" d="M51.2,16.4l-0.2,0c0.1,0.2,0.2,0.5,0.3,0.8c0.1,0.8-0.3,1.5-1.1,2.3c-0.2,0.2-0.3,0.4-0.5,0.6
				c-0.2,0.2-0.3,0.3-0.5,0.4l0,0c0.4-0.2,0.7-0.4,1.1-0.6c1.2-0.5,2.5-0.7,3.7-1c0.5-0.1,0.9-0.3,1.3-0.5c0.2-0.1,0.5-0.2,0.6-0.4
				c0.3-0.7-1.8-0.9-1.8-0.9l-2.1-0.2C51.6,16.7,51.4,16.6,51.2,16.4L51.2,16.4z"/>
		</g>
		<g>
			<circle class="st3" cx="48.9" cy="17.1" r="0.5"/>
			<path class="st11" d="M48.9,16.6c-0.3,0-0.5,0.2-0.5,0.5s0.2,0.5,0.5,0.5s0.5-0.2,0.5-0.5S49.2,16.6,48.9,16.6L48.9,16.6z"/>
		</g>
		<path class="st9" d="M22.7,45.5c0,0-2.9,1.6-5.8,2.5c-1,0.3-2.1,0.6-3,0.6c-0.3,0-2,0.2-2.2-0.3c-0.1-0.4,0.8-0.9,1-1
			c0.6-0.3,1.2-0.6,1.8-0.9c0.4-0.2,0.8-0.5,1.3-0.7c-2,0.5-3.5-1.1-3.6-1.2"/>
		<path class="st9" d="M27.4,41.7c0,0,3-1.2,5.5-4c0.1-0.1,0.1-0.1,0.2-0.2"/>
		<path class="st9" d="M43.9,41.8c-0.3,0.4-0.6,0.7-0.9,1c-8.7,9.6-20.5,4.4-20.5,4.4c-3.8,1.3-5.6,0.9-5.6,0.9"/>
		<path class="st9" d="M43.1,42.8c1.1-1.3,2.1-2.6,2.8-4.2c0.3-0.6,0.5-1.3,0.8-1.9c0.3-0.7,0.3-1.5,0.4-2.2c0-0.1,0-0.1,0-0.2
			c0.1-0.7,0.1-1.5,0-2.2c-0.1-1-0.2-2-0.4-3c-0.2-1.3-0.3-2.7-0.2-4c0-0.6-0.1-1.1,0.1-1.7c0.1-0.6,0.4-1.1,0.8-1.5
			c0.4-0.5,0.8-0.8,1.4-1.1c0.1-0.1,0.3-0.2,0.4-0.2c0.4-0.2,0.7-0.4,1.1-0.6c1.2-0.5,2.5-0.7,3.7-1c0.5-0.1,0.9-0.3,1.3-0.5
			c0.2-0.1,0.5-0.2,0.6-0.4c0.3-0.7-1.8-0.9-1.8-0.9l-2.1-0.2c-0.3-0.1-0.5-0.2-0.7-0.5"/>
		<path class="st9" d="M46.9,20.6c0,0,1.3,0.4,2.2-0.1c0.2-0.1,0.4-0.2,0.5-0.4c0.2-0.2,0.3-0.4,0.5-0.6c0.7-0.8,1.2-1.5,1.1-2.3
			c0-0.3-0.1-0.6-0.3-0.8c-0.4-0.7-1.1-1.1-2.7-1.1c-1.8,0-3,0.5-3.8,2c-0.4,0.6-1,2.2-1.1,2.9c-0.5,2.1-0.4,2.1-0.6,3.3
			c-0.1,0.8-0.1,1.7-0.1,2.7c0,0,0.1,1.6,0.2,3.1c0,0.2,0,0.5,0,0.7c0.1,1.7-0.4,3-0.4,3"/>
		<path class="st9" d="M35,32.2c0,0,5.3,0.7,7.9-2.9"/>
		<path class="st9" d="M37.1,33.4c0,0-0.8-0.5-2.1-1.2c-1.1-0.6-2.7-1.2-4.5-1.7c-1.5-0.4-3.1-1-4.7-1.4c-2.5-0.6-4.8-2-5-2.2
			c-2.5-1.6-2.7-4.4-2.7-4.4c-1.9-1.3-1.3,2.9-1.2,2.9c0,0.2,0.3,1.1,0.8,2c0.1,0.2,0.2,0.4,0.3,0.5"/>
		<path class="st9" d="M23.1,40.1C22,40,21,39.5,20.3,38.3"/>
		<path class="st9" d="M16.5,33.8c0,0,0.3,3,3.3,4c0.1,0,0.3,0.1,0.5,0.1"/>
		<path class="st9" d="M13,26.8c0,0,0.1,0.5,2.6,2.3"/>
		<path class="st9" d="M16.6,33.6c-4-2.3-3.6-6.7-3.6-6.8c0,0,0,0,0,0"/>
		<path class="st9" d="M15.6,29.1c-1.9-2.8-0.7-6.3-0.7-6.3s0.6,1.7,1.9,3.7c0.2,0.4,0.5,0.7,0.7,1.1c0.1,0.2,0.3,0.3,0.5,0.5
			c0,0,0,0,0,0c0.1,0.1,0.2,0.2,0.3,0.3"/>
		<path class="st9" d="M28.2,45c0,0,2.6,1.2,6.1,0.3"/>
		<path class="st9" d="M22.3,32.3c0.4,0.3,1,0.8,1.6,1.2c0.2,0.2,0.5,0.3,0.7,0.5c0.3,0.2,0.7,0.5,1,0.7c0.7,0.5,1.4,0.9,2.1,1.4
			c0.2,0.1,0.4,0.3,0.6,0.4c0.4,0.3,0.8,0.5,1.2,0.8c0.2,0.1,0.3,0.2,0.5,0.4"/>
		<path class="st9" d="M18,28.1c0.7,1.1,1.9,2.4,3.7,3.7c0,0,0.2,0.2,0.6,0.4"/>
		<path class="st9" d="M30.7,37.3c0,0-0.2,0.2-0.6,0.4c-1.1,0.7-3.3,1.9-5.4,2.3c-0.5,0.1-1.1,0.1-1.6,0.1"/>
	</g>
	<path class="st13" d="M55.5,32.1l-2.7-0.7c-0.9-9.3-8.3-16.6-17.6-17.4l-0.9-3.5c-0.2-0.6-1-0.6-1.2,0l-1,3.5
		c-9.5,0.7-17.1,8.3-17.9,17.8l-2.3,0.6c-0.8,0.2-0.8,1.4,0,1.6l2.3,0.6c0.7,9.6,8.3,17.3,17.9,18l0.6,2.2c0.2,0.9,1.5,0.9,1.7,0
		l0.6-2.2c9.6-0.7,17.1-8.4,17.8-18l2.7-0.7C56.4,33.6,56.4,32.4,55.5,32.1z"/>
	<g>
		<circle class="st14" cx="33.5" cy="33.2" r="19.4"/>
		<circle class="st15" cx="33.5" cy="33.2" r="19.4"/>
	</g>
	<circle class="st16" cx="33.5" cy="33.2" r="16.7"/>
	<g>
		<path class="st17" d="M33.5,46.7c-7.4,0-13.5-6-13.5-13.5c0-7.4,6-13.5,13.5-13.5c7.4,0,13.5,6,13.5,13.5
			C47,40.7,40.9,46.7,33.5,46.7z"/>
		<path d="M33.5,20.3c7.2,0,13,5.8,13,13s-5.8,13-13,13s-13-5.8-13-13S26.4,20.3,33.5,20.3 M33.5,19.3c-7.7,0-14,6.3-14,14
			s6.3,14,14,14s14-6.3,14-14S41.2,19.3,33.5,19.3L33.5,19.3z"/>
	</g>
	<g>
		<path class="st18" d="M33.5,44.1c-6,0-10.8-4.9-10.8-10.8c0-6,4.9-10.8,10.8-10.8c6,0,10.8,4.9,10.8,10.8
			C44.3,39.2,39.5,44.1,33.5,44.1z"/>
		<path d="M33.5,22.9c5.7,0,10.3,4.6,10.3,10.3s-4.6,10.3-10.3,10.3s-10.3-4.6-10.3-10.3S27.8,22.9,33.5,22.9 M33.5,21.9
			c-6.3,0-11.3,5.1-11.3,11.3s5.1,11.3,11.3,11.3s11.3-5.1,11.3-11.3S39.8,21.9,33.5,21.9L33.5,21.9z"/>
	</g>
	<path class="st19" d="M32.7,54.8l-4.4-16.4c0-0.1-0.1-0.2-0.3-0.2L12,34c-0.8-0.2-0.8-1.4,0-1.6l16.2-4.5c0.1,0,0.2-0.1,0.2-0.2
		l4.7-17.3c0.2-0.6,1-0.6,1.2,0l4.4,17.1c0,0.1,0.1,0.2,0.2,0.2l16.6,4.3c0.9,0.2,0.9,1.5,0,1.7L39,38c-0.1,0-0.2,0.1-0.3,0.2
		l-4.2,16.4C34.2,55.6,33,55.6,32.7,54.8z"/>
	<g>
		<rect x="28.8" y="28.5" class="st17" width="9.3" height="9.3"/>
		<g>
			<path d="M37.6,29v8.3h-8.3V29H37.6 M38.6,28H28.3v10.3h10.3V28L38.6,28z"/>
		</g>
	</g>
	<line class="st20" x1="33.6" y1="55.4" x2="33.6" y2="36.9"/>
	<line class="st20" x1="11.3" y1="33.2" x2="30.4" y2="33.2"/>
	<line class="st20" x1="38.8" y1="33" x2="56.4" y2="33"/>
	<g>
		<path class="st21" d="M23.2,21l23.3,22.5c-0.3,0.9-1.4,3.8-5.1,4.2L23.2,21z"/>
		<path d="M26.4,24.8L46,43.7c-0.4,1.1-1.5,3.1-4.3,3.5L26.4,24.8 M21.7,18.9c-0.2,0-0.3,0.2-0.2,0.4l19.6,28.7
			c0,0.1,0.1,0.1,0.2,0.1c0,0,0,0,0,0c4.4-0.4,5.5-3.9,5.7-4.7c0-0.1,0-0.2-0.1-0.2L21.9,19C21.8,19,21.8,18.9,21.7,18.9L21.7,18.9z
			"/>
	</g>
	
		<use xlink:href="#New_Symbol_00000044876285098442181340000015591834923753713034_"  width="156.3" height="119.4" id="XMLID_00000086687487757409986760000013117973867732930492_" x="-78.1" y="-59.7" transform="matrix(0.2895 0 0 -0.2895 33.7888 32.0172)" style="overflow:visible;"/>
	<path class="st22" d="M29.2,9.9"/>
	<line class="st20" x1="33.6" y1="9.6" x2="33.6" y2="28.7"/>
</g>
<g id="Layer_4">
</g>
</svg>
